<svg width="1063" height="266" viewBox="0 0 1063 266" fill="none" xmlns="http://www.w3.org/2000/svg">
<path opacity="0.1" fill-rule="evenodd" clip-rule="evenodd" d="M-377 265.227C-377 265.227 -144.63 206.1 29.8654 107.551L38.502 127.506C38.502 127.506 196.872 63.2673 256.188 0C256.188 0 289.586 38.2016 306.867 45.2552C324.14 52.3153 342.854 42.3347 342.854 42.3347C342.854 42.3347 360.134 62.5372 429.527 89.5456L433.272 78.5936L530.885 127.747C530.885 127.747 613.815 109.742 684.07 62.5372C684.07 62.5372 712.576 110.713 745.975 125.798C779.381 140.89 771.892 119.716 771.892 119.716C771.892 119.716 768.148 137.721 875.839 185.904C983.53 234.086 1000.23 240.168 1063 264.745C1034.49 263.767 899.16 218.023 830.06 198.068C760.952 177.872 706.529 152.813 738.494 182.012C770.744 211.211 797.809 245.279 797.809 245.279C797.809 245.279 603.73 147.943 588.76 159.867C573.791 172.031 598.552 201.96 598.552 201.96C598.552 201.96 550.177 177.872 511.879 173.009C473.581 167.898 219.037 254.282 219.037 254.282C219.037 254.282 434.134 155.003 424.342 144.781C414.558 134.801 191.972 190.037 110.198 203.909C110.198 203.909 332.776 114.605 309.17 94.4088C285.557 74.4605 241.21 104.389 241.21 104.389C241.21 104.389 258.491 72.2701 235.163 79.3237C211.557 86.3839 133.812 180.793 -81.2849 221.915C-81.2849 221.915 48.2942 158.165 13.4475 157.187C-21.3915 156.457 -160.755 249.171 -377 265.227Z" fill="#00796B"/>
</svg>
