<svg width="1440" height="266" viewBox="0 0 1440 266" fill="none" xmlns="http://www.w3.org/2000/svg">
<path opacity="0.1" fill-rule="evenodd" clip-rule="evenodd" d="M0 265.227C0 265.227 232.37 206.1 406.865 107.551L415.502 127.506C415.502 127.506 573.872 63.2673 633.188 0C633.188 0 666.586 38.2016 683.867 45.2552C701.14 52.3153 719.854 42.3347 719.854 42.3347C719.854 42.3347 737.134 62.5372 806.527 89.5456L810.272 78.5936L907.885 127.747C907.885 127.747 990.815 109.742 1061.07 62.5372C1061.07 62.5372 1089.58 110.713 1122.97 125.798C1156.38 140.89 1148.89 119.716 1148.89 119.716C1148.89 119.716 1145.15 137.721 1252.84 185.904C1360.53 234.086 1377.23 240.168 1440 264.745C1411.49 263.767 1276.16 218.023 1207.06 198.068C1137.95 177.872 1083.53 152.813 1115.49 182.012C1147.74 211.211 1174.81 245.279 1174.81 245.279C1174.81 245.279 980.73 147.943 965.76 159.867C950.791 172.031 975.552 201.96 975.552 201.96C975.552 201.96 927.177 177.872 888.879 173.009C850.581 167.898 596.037 254.282 596.037 254.282C596.037 254.282 811.134 155.003 801.342 144.781C791.558 134.801 568.972 190.037 487.198 203.909C487.198 203.909 709.776 114.605 686.17 94.4088C662.557 74.4605 618.21 104.389 618.21 104.389C618.21 104.389 635.491 72.2701 612.163 79.3237C588.557 86.3839 510.812 180.793 295.715 221.915C295.715 221.915 425.294 158.165 390.447 157.187C355.609 156.457 216.245 249.171 0 265.227Z" fill="#00796B"/>
</svg>
