<svg width="56" height="56" viewBox="0 0 56 56" fill="none" xmlns="http://www.w3.org/2000/svg">
<g id="Logo unimet ">
<g id="Vector 12">
<path d="M20.5 6H13V28.5L20.5 26.5V6Z" fill="white"/>
<path d="M31.5 6H24.5V25L31.5 23V6Z" fill="white"/>
<path d="M13 49.3713V32L20.5 30V49.3713H13Z" fill="white"/>
<path d="M24.5 49.3713V29L31.5 27V49.3713H24.5Z" fill="white"/>
<path d="M36 49.3713V25.5L43.5 23.5V49.3713H36Z" fill="white"/>
<path d="M20.5 6H13V28.5L20.5 26.5V6Z" stroke="white"/>
<path d="M31.5 6H24.5V25L31.5 23V6Z" stroke="white"/>
<path d="M13 49.3713V32L20.5 30V49.3713H13Z" stroke="white"/>
<path d="M24.5 49.3713V29L31.5 27V49.3713H24.5Z" stroke="white"/>
<path d="M36 49.3713V25.5L43.5 23.5V49.3713H36Z" stroke="white"/>
</g>
</g>
</svg>
