<svg width="16" height="16" viewBox="0 0 16 16" fill="none" xmlns="http://www.w3.org/2000/svg">
<g id="Icon/People/PersonSimpleHike">
<path id="Vector" d="M9.49972 5C9.89528 5 10.282 4.8827 10.6109 4.66294C10.9398 4.44318 11.1961 4.13082 11.3475 3.76537C11.4989 3.39992 11.5385 2.99778 11.4613 2.60982C11.3841 2.22186 11.1936 1.86549 10.9139 1.58579C10.6342 1.30608 10.2779 1.1156 9.8899 1.03843C9.50194 0.96126 9.0998 1.00087 8.73435 1.15224C8.3689 1.30362 8.05654 1.55996 7.83678 1.88886C7.61702 2.21776 7.49972 2.60444 7.49972 3C7.49972 3.53043 7.71043 4.03914 8.0855 4.41421C8.46058 4.78929 8.96928 5 9.49972 5ZM9.49972 2C9.6975 2 9.89084 2.05865 10.0553 2.16853C10.2197 2.27841 10.3479 2.43459 10.4236 2.61732C10.4993 2.80004 10.5191 3.00111 10.4805 3.19509C10.4419 3.38907 10.3467 3.56726 10.2068 3.70711C10.067 3.84696 9.88879 3.9422 9.69481 3.98079C9.50083 4.01937 9.29976 3.99957 9.11703 3.92388C8.93431 3.84819 8.77813 3.72002 8.66825 3.55557C8.55837 3.39112 8.49972 3.19778 8.49972 3C8.49972 2.73478 8.60507 2.48043 8.79261 2.29289C8.98015 2.10536 9.2345 2 9.49972 2ZM12.4997 9V14.5C12.4997 14.6326 12.447 14.7598 12.3533 14.8536C12.2595 14.9473 12.1323 15 11.9997 15C11.8671 15 11.7399 14.9473 11.6462 14.8536C11.5524 14.7598 11.4997 14.6326 11.4997 14.5V9.47875C9.89034 9.33813 9.35284 8.50875 8.87472 7.76875C8.69659 7.49438 8.52722 7.23313 8.30409 7.00688L7.46659 8.9325L9.79159 10.5931C9.85612 10.6395 9.90867 10.7006 9.94486 10.7714C9.98106 10.8422 9.99986 10.9205 9.99972 11V14.5C9.99972 14.6326 9.94704 14.7598 9.85327 14.8536C9.7595 14.9473 9.63233 15 9.49972 15C9.36711 15 9.23993 14.9473 9.14616 14.8536C9.0524 14.7598 8.99972 14.6326 8.99972 14.5V11.2575L7.05784 9.87L4.95847 14.6994C4.91961 14.7887 4.85549 14.8648 4.77399 14.9182C4.69249 14.9716 4.59716 15 4.49972 15C4.43106 15.0002 4.36313 14.9859 4.30034 14.9581C4.17891 14.9052 4.08345 14.8062 4.03494 14.6829C3.98642 14.5596 3.98882 14.4221 4.04159 14.3006L7.63659 6.03125C7.66389 5.96852 7.70376 5.91205 7.75376 5.86535C7.80375 5.81865 7.86279 5.7827 7.92724 5.75973C7.99168 5.73677 8.06015 5.72727 8.12842 5.73183C8.19668 5.73639 8.26328 5.75492 8.32409 5.78625C8.50371 5.88 8.67156 5.99476 8.82409 6.12813C9.22222 6.47313 9.48097 6.8725 9.70909 7.225C10.1891 7.965 10.5353 8.5 11.9966 8.5C12.0625 8.49959 12.1279 8.51222 12.1889 8.53716C12.2499 8.5621 12.3054 8.59887 12.3522 8.64534C12.3989 8.69181 12.436 8.74707 12.4614 8.80793C12.4867 8.8688 12.4997 8.93408 12.4997 9ZM4.49972 9.5C4.59755 9.49996 4.69321 9.47121 4.77487 9.41733C4.85652 9.36345 4.92057 9.2868 4.95909 9.19688L6.45909 5.69688C6.51125 5.57504 6.5129 5.43747 6.46367 5.31442C6.41445 5.19136 6.31839 5.09289 6.19659 5.04063L4.44659 4.29063C4.32475 4.23847 4.18719 4.23682 4.06414 4.28604C3.94108 4.33527 3.8426 4.43133 3.79034 4.55313L2.29034 8.05313C2.23819 8.17497 2.23654 8.31253 2.28576 8.43558C2.33498 8.55864 2.43105 8.65712 2.55284 8.70938L4.30284 9.45938C4.36504 9.48611 4.43202 9.49993 4.49972 9.5ZM3.40659 7.9875L4.51222 5.40625L5.34347 5.7625L4.23722 8.34313L3.40659 7.9875Z" fill="#757575"/>
</g>
</svg>
