<svg width="202" height="45" viewBox="0 0 202 45" fill="none" xmlns="http://www.w3.org/2000/svg">
<path fill-rule="evenodd" clip-rule="evenodd" d="M22.102 9.94745C22.102 9.94745 22.5042 11.854 23.2297 12.9778C23.2297 12.9778 22.9473 12.9778 22.7467 12.8757C22.5451 12.7735 23.4712 14.5441 24.9622 15.6342C24.9622 15.6342 24.559 15.8723 24.1159 15.668C23.6728 15.4636 24.076 15.9061 23.6728 15.668C23.2696 15.4299 23.6728 16.3485 23.2696 15.8386C22.8675 15.3277 23.0691 16.0082 22.8675 15.8723C22.6659 15.7364 23.5521 17.3364 24.8015 18.3919C24.8015 18.3919 24.5191 18.6646 24.1159 18.494C23.7138 18.3234 24.5191 19.9581 26.7755 21.456C26.7755 21.456 26.4133 21.8647 25.7276 21.5244C25.043 21.1842 25.3255 21.7972 24.8414 21.5928C24.3585 21.3885 24.8015 21.9668 24.2366 21.6603C23.6728 21.3538 23.5521 21.7625 23.5521 21.7625C23.5521 21.7625 24.4792 23.5331 26.534 24.4864C26.534 24.4864 26.0909 24.9635 25.6877 24.7591C25.2845 24.521 26.7356 27.5852 29.7974 28.9471C29.7974 28.9471 30.4022 29.6623 28.992 28.9471C27.5819 28.232 28.8303 30.2416 27.8234 28.9471C26.8154 27.6536 27.6617 30.1732 26.6946 28.9471C25.7276 27.7211 26.8564 30.1732 25.8893 29.1177C24.9223 28.0623 26.8154 30.4797 25.2845 29.2199C23.7537 27.9601 24.7207 29.5939 24.3585 29.2874L23.0281 29.3896C23.0281 29.3896 24.0361 33.2035 23.9951 33.5438L20.0063 33.6122C19.9664 33.2373 20.9733 29.4242 20.9733 29.4242L19.8047 29.2874C19.4424 29.5601 20.4095 27.9601 18.8786 29.2199C17.3466 30.4797 19.2408 28.0623 18.2738 29.1177C17.3068 30.1732 18.4355 27.7211 17.4685 28.9471C16.5014 30.1732 17.3466 27.6536 16.3397 28.9471C15.3328 30.2416 16.5812 28.232 15.1711 28.9471C13.761 29.6623 14.3658 28.9471 14.3658 28.9471C17.3876 27.5852 18.8786 24.5548 18.4754 24.7591C18.0722 24.9972 17.6291 24.4864 17.6291 24.4864C19.6839 23.5331 20.6111 21.7625 20.6111 21.7625C20.6111 21.7625 20.4903 21.3538 19.9254 21.6603C19.3616 21.9668 19.8047 21.4222 19.3217 21.5928C18.8376 21.7972 19.1201 21.1842 18.4355 21.5244C17.7498 21.8647 17.3876 21.456 17.3876 21.456C19.644 19.9581 20.4493 18.3234 20.0472 18.494C19.644 18.6646 19.3616 18.3919 19.3616 18.3919C20.6111 17.3027 21.4972 15.7017 21.2956 15.8723C21.094 16.0082 21.2956 15.3277 20.8924 15.8386C20.4903 16.3485 20.8525 15.4299 20.4903 15.668C20.0871 15.9061 20.4903 15.4636 20.0472 15.668C19.6031 15.8723 19.2009 15.6342 19.2009 15.6342C20.6919 14.5441 21.618 12.7735 21.4164 12.8757C21.2148 12.9778 20.9334 12.9778 20.9334 12.9778C21.6988 11.854 22.102 9.94745 22.102 9.94745Z" fill="#CDCDCD" fill-opacity="0.8"/>
<path fill-rule="evenodd" clip-rule="evenodd" d="M30.6054 13.4183C30.6054 13.4183 30.8867 14.7465 31.4107 15.5301C31.4107 15.5301 31.2091 15.5301 31.0883 15.4617C30.9277 15.3933 31.5724 16.6193 32.6192 17.3682C32.6192 17.3682 32.3378 17.5388 32.0554 17.4029C31.7729 17.2661 32.0155 17.5726 31.7729 17.4029C31.5314 17.2323 31.7729 17.8791 31.4915 17.5388C31.2091 17.1986 31.3708 17.6747 31.2091 17.5726C31.0883 17.4704 31.6931 18.5943 32.5394 19.3432C32.5394 19.3432 32.3378 19.5475 32.0554 19.4116C31.7729 19.3094 32.3378 20.4333 33.9086 21.4541C33.9086 21.4541 33.6671 21.7268 33.1841 21.4887C32.7001 21.2497 32.9017 21.6584 32.5793 21.5225C32.257 21.3866 32.5394 21.7952 32.1761 21.5562C31.7729 21.3519 31.6931 21.6247 31.6931 21.6247C31.6931 21.6247 32.3378 22.8507 33.7878 23.5312C33.7878 23.5312 33.4655 23.8724 33.1841 23.7018C32.9017 23.5312 33.9086 25.6421 36.0443 26.5962C36.0443 26.5962 36.4475 27.1071 35.4804 26.5962C34.5134 26.1192 35.3597 27.4811 34.674 26.5962C33.9894 25.7105 34.5533 27.4473 33.8687 26.5962C33.1841 25.7442 33.9894 27.4473 33.3049 26.6984C32.6192 25.9832 33.9495 27.6517 32.9017 26.7659C31.8139 25.9148 32.4985 27.0387 32.257 26.8343L31.2899 26.9365C31.2899 26.9365 31.9745 29.5582 31.9745 29.831L29.1942 29.8647C29.1543 29.6266 29.8798 26.9365 29.8798 26.9365L29.0734 26.8343C28.8319 27.0387 29.4766 25.9148 28.4287 26.7659C27.3409 27.617 28.6713 25.9486 28.0266 26.6984C27.3409 27.4127 28.1473 25.7442 27.4617 26.5962C26.7771 27.4473 27.3819 25.7105 26.6564 26.5962C25.9718 27.4811 26.817 26.1192 25.85 26.5962C24.8829 27.1071 25.2861 26.5962 25.2861 26.5962C27.3819 25.6421 28.3888 23.5312 28.1473 23.7018C27.8649 23.8724 27.5425 23.5312 27.5425 23.5312C28.9936 22.8507 29.6383 21.6247 29.6383 21.6247C29.6383 21.6247 29.5575 21.3519 29.1543 21.5562C28.7511 21.7606 29.0734 21.3866 28.7511 21.5225C28.4287 21.6584 28.5904 21.2497 28.1473 21.4887C27.6633 21.7268 27.4218 21.4541 27.4218 21.4541C28.9936 20.3986 29.5575 19.2748 29.275 19.4116C28.9936 19.5138 28.792 19.3432 28.792 19.3432C29.6782 18.5943 30.283 17.5051 30.1213 17.5726C30.0006 17.6747 30.1213 17.1986 29.8388 17.5388C29.5575 17.8791 29.8388 17.2661 29.5575 17.4029C29.275 17.5726 29.5575 17.2661 29.275 17.4029C28.9936 17.5388 28.7112 17.3682 28.7112 17.3682C29.7591 16.6193 30.3628 15.3933 30.242 15.4617C30.1213 15.5301 29.9197 15.5301 29.9197 15.5301C30.3229 14.7465 30.6054 13.4183 30.6054 13.4183Z" fill="#CDCDCD" fill-opacity="0.8"/>
<path fill-rule="evenodd" clip-rule="evenodd" d="M14.8527 18.051C14.8527 18.051 15.1351 19.4129 15.6591 20.2303C15.6591 20.2303 15.4575 20.2303 15.3367 20.1619C15.175 20.0935 15.8607 21.3532 16.9075 22.1368C16.9075 22.1368 16.6261 22.3074 16.3038 22.1706C15.9814 22.0347 16.2628 22.3412 15.9814 22.1706C15.699 22.0009 15.9814 22.6477 15.699 22.3074C15.4165 21.9662 15.5782 22.4433 15.4165 22.3412C15.2559 22.239 15.9006 23.3628 16.7867 24.1455C16.7867 24.1455 16.5851 24.3499 16.3038 24.2139C16.0213 24.0771 16.5851 25.2356 18.1969 26.3248C18.1969 26.3248 17.9554 26.5976 17.4314 26.3586C16.9485 26.1205 17.1501 26.5292 16.7867 26.3932C16.4245 26.2564 16.7469 26.6651 16.3436 26.427C15.9404 26.1889 15.8607 26.4954 15.8607 26.4954C15.8607 26.4954 16.5452 27.7552 17.9953 28.4357C17.9953 28.4357 17.6729 28.7759 17.3915 28.6063C17.1899 28.4704 18.2378 30.6487 20.4134 31.6367C20.4134 31.6367 20.8565 32.1475 19.8496 31.6367C18.8416 31.1258 19.7288 32.5562 19.0033 31.6367C18.2777 30.7171 18.8825 32.5215 18.1969 31.6367C17.5123 30.7509 18.3176 32.5215 17.633 31.7726C16.9485 31.0237 18.3176 32.7605 17.1899 31.841C16.1022 30.9552 16.7867 32.1128 16.5054 31.9094L15.5383 31.9769C15.5383 31.9769 16.2628 34.7008 16.2229 34.9398L13.3617 34.9736C13.3218 34.7008 14.0473 31.9769 14.0473 31.9769L13.2011 31.8748C12.9596 32.0791 13.6441 30.9215 12.5165 31.8073C11.4276 32.6921 12.758 30.9899 12.0723 31.7388C11.3877 32.4878 12.1941 30.7509 11.5085 31.6029C10.8239 32.4878 11.4276 30.6834 10.7032 31.6029C9.97761 32.5215 10.8638 31.0921 9.85686 31.6029C8.84886 32.1128 9.29303 31.6029 9.29303 31.6029C11.4686 30.615 12.5165 28.4704 12.234 28.6063C11.9516 28.7769 11.6292 28.4357 11.6292 28.4357C13.1202 27.7552 13.7649 26.4954 13.7649 26.4954C13.7649 26.4954 13.684 26.2226 13.2819 26.427C12.8787 26.6651 13.2011 26.2564 12.8388 26.3932C12.4755 26.5292 12.6771 26.1205 12.1941 26.3586C11.7101 26.5976 11.4276 26.3248 11.4276 26.3248C13.0393 25.2356 13.6441 24.0771 13.3218 24.2139C13.0393 24.3499 12.8388 24.1455 12.8388 24.1455C13.725 23.3628 14.3697 22.239 14.208 22.3412C14.0473 22.4433 14.208 21.9662 13.9266 22.3074C13.6441 22.6477 13.9266 22.0009 13.6441 22.1706C13.3617 22.3412 13.6441 22.0347 13.3218 22.1706C12.9995 22.3074 12.717 22.1368 12.717 22.1368C13.8059 21.3532 14.4505 20.0935 14.2888 20.1619C14.1282 20.2303 13.9665 20.2303 13.9665 20.2303C14.5713 19.4129 14.8527 18.051 14.8527 18.051Z" fill="#CDCDCD" fill-opacity="0.8"/>
<mask id="mask0_406_30628" style="mask-type:luminance" maskUnits="userSpaceOnUse" x="0" y="0" width="202" height="38">
<path d="M0 0.617386H201.72V37.7511H0V0.617386Z" fill="white"/>
</mask>
<g mask="url(#mask0_406_30628)">
<path fill-rule="evenodd" clip-rule="evenodd" d="M0.264282 37.731C0.264282 37.731 32.7802 29.4572 57.1975 15.6672L58.406 18.4595C58.406 18.4595 80.567 9.47046 88.8671 0.617386C88.8671 0.617386 93.5406 5.96299 95.9587 6.95001C98.3757 7.93794 100.994 6.54133 100.994 6.54133C100.994 6.54133 103.413 9.3683 113.123 13.1476L113.647 11.6151L127.306 18.4932C127.306 18.4932 138.91 15.9737 148.741 9.3683C148.741 9.3683 152.73 16.1096 157.404 18.2205C162.078 20.3322 161.03 17.3694 161.03 17.3694C161.03 17.3694 160.506 19.8889 175.576 26.6311C190.645 33.3733 192.982 34.2244 201.765 37.6635C197.777 37.5266 178.839 31.1256 169.17 28.3333C159.499 25.5073 151.884 22.0007 156.357 26.0865C160.87 30.1723 164.657 34.9396 164.657 34.9396C164.657 34.9396 137.499 21.3193 135.404 22.9877C133.31 24.6899 136.775 28.8779 136.775 28.8779C136.775 28.8779 130.005 25.5073 124.646 24.8267C119.287 24.1116 83.6686 36.1994 83.6686 36.1994C83.6686 36.1994 113.767 22.3072 112.397 20.8768C111.028 19.4802 79.8813 27.2095 68.4386 29.1507C68.4386 29.1507 99.5843 16.6542 96.281 13.8281C92.9767 11.0367 86.7713 15.2247 86.7713 15.2247C86.7713 15.2247 89.1894 10.7302 85.925 11.7173C82.6218 12.7052 71.7429 25.9159 41.6441 31.6702C41.6441 31.6702 59.7763 22.7496 54.9001 22.6128C50.0251 22.5106 30.5237 35.4842 0.264282 37.731Z" fill="#CDCDCD" fill-opacity="0.8"/>
</g>
<path fill-rule="evenodd" clip-rule="evenodd" d="M128.274 4.39862C128.274 4.39862 128.556 5.65839 128.999 6.37357C128.999 6.37357 128.838 6.37357 128.676 6.30516C128.556 6.23765 129.12 7.39526 130.127 8.10953C130.127 8.10953 129.845 8.28011 129.603 8.14419C129.321 8.00827 129.564 8.31386 129.321 8.14419C129.08 8.00827 129.321 8.58662 129.04 8.28011C128.757 7.93985 128.919 8.41603 128.798 8.31386C128.676 8.21169 129.241 9.26804 130.047 9.98231C130.047 9.98231 129.845 10.1529 129.603 10.0507C129.321 9.94856 129.886 11.004 131.336 11.9919C131.336 11.9919 131.094 12.2638 130.651 12.0257C130.208 11.7876 130.369 12.1963 130.088 12.0594C129.765 11.9235 130.047 12.2984 129.684 12.0941C129.321 11.8898 129.241 12.1616 129.241 12.1616C129.241 12.1616 129.845 13.3192 131.215 13.9322C131.215 13.9322 130.933 14.2387 130.651 14.1028C130.369 13.9669 131.336 15.9418 133.311 16.8267C133.311 16.8267 133.713 17.3038 132.787 16.8267C131.86 16.3496 132.666 17.6778 132.022 16.8267C131.377 15.9756 131.9 17.6094 131.296 16.8267C130.651 16.0431 131.417 17.6094 130.772 16.9289C130.127 16.2474 131.377 17.8137 130.369 16.9973C129.362 16.1799 130.007 17.2354 129.765 17.0648L128.919 17.1332C128.919 17.1332 129.564 19.619 129.564 19.8571L126.944 19.8908C126.904 19.6527 127.589 17.1332 127.589 17.1332L126.823 17.0648C126.582 17.2354 127.226 16.1799 126.219 16.9973C125.211 17.8137 126.461 16.2474 125.816 16.9289C125.171 17.6094 125.937 16.0093 125.292 16.8267C124.648 17.6094 125.211 15.9756 124.567 16.8267C123.922 17.6778 124.728 16.3496 123.801 16.8267C122.875 17.3038 123.277 16.8267 123.277 16.8267C125.252 15.9418 126.219 13.9669 125.937 14.1028C125.654 14.2387 125.373 13.9322 125.373 13.9322C126.702 13.2855 127.347 12.1616 127.347 12.1616C127.347 12.1616 127.266 11.8898 126.904 12.0941C126.542 12.2984 126.823 11.9235 126.501 12.0594C126.178 12.1963 126.38 11.7876 125.937 12.0257C125.494 12.2638 125.252 11.9919 125.252 11.9919C126.743 11.004 127.266 9.94856 126.985 10.0507C126.702 10.1529 126.542 9.98231 126.542 9.98231C127.347 9.26804 127.911 8.24636 127.79 8.31386C127.669 8.41603 127.79 7.9736 127.549 8.28011C127.266 8.62037 127.549 8.00827 127.266 8.14419C127.025 8.28011 127.266 8.00827 126.985 8.14419C126.702 8.28011 126.461 8.10953 126.461 8.10953C127.428 7.39526 128.033 6.23765 127.911 6.30516C127.79 6.37357 127.589 6.37357 127.589 6.37357C128.033 5.65839 128.274 4.39862 128.274 4.39862Z" fill="#CDCDCD" fill-opacity="0.8"/>
<path fill-rule="evenodd" clip-rule="evenodd" d="M133.834 6.67401C133.834 6.67401 134.035 7.52511 134.358 8.03595C134.358 8.03595 134.237 8.03595 134.156 8.0022C134.076 7.96754 134.478 8.75113 135.164 9.26197C135.164 9.26197 134.962 9.36414 134.801 9.29573C134.599 9.19356 134.801 9.39789 134.599 9.29573C134.438 9.19356 134.599 9.60223 134.399 9.36414C134.197 9.12514 134.318 9.43165 134.237 9.39789C134.156 9.32948 134.559 10.0447 135.123 10.5555C135.123 10.5555 135.002 10.6914 134.801 10.6239C134.6 10.5555 135.002 11.2707 136.01 11.9512C136.01 11.9512 135.849 12.1218 135.526 11.9859C135.204 11.8153 135.325 12.088 135.123 12.0196C134.921 11.9174 135.123 12.1902 134.842 12.0534C134.599 11.9174 134.519 12.088 134.519 12.088C134.519 12.088 134.921 12.8707 135.888 13.3131C135.888 13.3131 135.688 13.5175 135.486 13.4153C135.285 13.3131 135.969 14.6751 137.34 15.3228C137.34 15.3228 137.622 15.6293 136.977 15.3228C136.333 15.0162 136.896 15.9011 136.453 15.3228C136.01 14.7435 136.373 15.8673 135.929 15.3228C135.486 14.7772 136.01 15.8673 135.566 15.3903C135.123 14.9141 135.969 16.0033 135.285 15.4587C134.6 14.8794 135.043 15.6293 134.882 15.4924L134.278 15.5271C134.278 15.5271 134.721 17.263 134.721 17.3999L132.908 17.4336C132.867 17.263 133.351 15.5271 133.351 15.5271L132.827 15.4587C132.666 15.5946 133.109 14.8457 132.424 15.4249C131.739 16.0033 132.585 14.8794 132.142 15.3565C131.699 15.8336 132.222 14.7097 131.779 15.2881C131.336 15.8336 131.739 14.7097 131.255 15.2881C130.812 15.8673 131.377 14.9816 130.732 15.2881C130.087 15.5946 130.369 15.2881 130.369 15.2881C131.739 14.6751 132.424 13.2794 132.222 13.3816C132.021 13.4837 131.82 13.2794 131.82 13.2794C132.746 12.837 133.189 12.0534 133.189 12.0534C133.189 12.0534 133.149 11.8837 132.867 12.0196C132.625 12.1555 132.827 11.9174 132.585 11.9859C132.384 12.088 132.504 11.8153 132.182 11.9512C131.86 12.1218 131.699 11.9174 131.699 11.9174C132.746 11.236 133.109 10.4871 132.908 10.5893C132.706 10.6577 132.585 10.5217 132.585 10.5217C133.149 10.0447 133.552 9.29573 133.471 9.36414C133.391 9.43165 133.471 9.12514 133.311 9.32948C133.109 9.56848 133.311 9.15981 133.109 9.26197C132.947 9.36414 133.109 9.15981 132.908 9.26197C132.706 9.36414 132.544 9.22731 132.544 9.22731C133.23 8.75113 133.633 7.93378 133.552 7.96754C133.471 8.0022 133.351 8.0022 133.351 8.0022C133.633 7.52511 133.834 6.67401 133.834 6.67401Z" fill="#CDCDCD" fill-opacity="0.8"/>
<path fill-rule="evenodd" clip-rule="evenodd" d="M123.561 9.70721C123.561 9.70721 123.763 10.5921 124.085 11.1376C124.085 11.1376 123.964 11.1376 123.883 11.1029C123.803 11.0692 124.206 11.8865 124.931 12.3973C124.931 12.3973 124.73 12.4995 124.528 12.4311C124.326 12.3289 124.528 12.5333 124.326 12.4311C124.166 12.3289 124.326 12.7376 124.125 12.5333C123.923 12.2952 124.044 12.6354 123.964 12.567C123.883 12.4995 124.287 13.2484 124.85 13.7593C124.85 13.7593 124.73 13.8952 124.528 13.8268C124.326 13.7593 124.73 14.5082 125.778 15.1887C125.778 15.1887 125.616 15.3593 125.293 15.2234C124.971 15.0528 125.092 15.3256 124.89 15.2572C124.649 15.155 124.89 15.4277 124.609 15.2909C124.326 15.155 124.287 15.3256 124.287 15.3256C124.287 15.3256 124.73 16.142 125.697 16.5853C125.697 16.5853 125.495 16.8234 125.293 16.7213C125.092 16.6191 125.778 18.0495 127.188 18.6625C127.188 18.6625 127.469 19.0027 126.824 18.6625C126.18 18.3213 126.745 19.2746 126.261 18.6625C125.778 18.0495 126.18 19.2408 125.737 18.6625C125.293 18.0832 125.817 19.2408 125.374 18.73C124.931 18.2538 125.817 19.3767 125.092 18.7984C124.366 18.2191 124.811 18.969 124.649 18.8321L124.044 18.9006C124.044 18.9006 124.528 20.6712 124.488 20.8408L122.634 20.8755C122.594 20.7049 123.077 18.9343 123.077 18.9343L122.554 18.8668C122.392 19.0027 122.835 18.2538 122.111 18.8321C121.385 19.4114 122.272 18.2875 121.829 18.7646C121.385 19.2408 121.909 18.117 121.466 18.6962C121.022 19.2746 121.425 18.0832 120.942 18.6962C120.458 19.3092 121.063 18.356 120.377 18.6962C119.733 19.0365 120.015 18.6962 120.015 18.6962C121.425 18.0495 122.111 16.6528 121.909 16.755C121.708 16.8572 121.506 16.6191 121.506 16.6191C122.473 16.1767 122.916 15.3593 122.916 15.3593C122.916 15.3593 122.876 15.1887 122.594 15.3256C122.312 15.4615 122.554 15.2234 122.312 15.2909C122.07 15.3931 122.232 15.1212 121.909 15.2572C121.587 15.4277 121.425 15.2234 121.425 15.2234C122.473 14.5082 122.876 13.7593 122.675 13.8615C122.473 13.929 122.352 13.793 122.352 13.793C122.956 13.2822 123.359 12.5333 123.239 12.6017C123.158 12.6692 123.239 12.3627 123.078 12.567C122.876 12.806 123.078 12.3627 122.876 12.4649C122.715 12.567 122.876 12.3627 122.675 12.4649C122.473 12.567 122.272 12.4311 122.272 12.4311C122.956 11.9203 123.399 11.1029 123.32 11.1376C123.239 11.1713 123.118 11.1713 123.118 11.1713C123.359 10.5921 123.561 9.70721 123.561 9.70721Z" fill="#CDCDCD" fill-opacity="0.8"/>
<path fill-rule="evenodd" clip-rule="evenodd" d="M175.095 12.465C175.095 12.465 175.377 13.7932 175.901 14.5759C175.901 14.5759 175.699 14.5759 175.578 14.5084C175.418 14.44 176.063 15.666 177.109 16.4149C177.109 16.4149 176.828 16.5855 176.545 16.4487C176.263 16.3128 176.506 16.6193 176.263 16.4487C175.982 16.279 176.263 16.9258 175.982 16.5855C175.699 16.2443 175.861 16.7214 175.699 16.6193C175.539 16.5171 176.183 17.641 177.03 18.3899C177.03 18.3899 176.828 18.5942 176.545 18.4583C176.263 18.3561 176.828 19.4791 178.399 20.5008C178.399 20.5008 178.157 20.7735 177.674 20.5354C177.19 20.2964 177.392 20.7051 177.069 20.5692C176.747 20.4333 177.03 20.841 176.666 20.6029C176.263 20.3986 176.183 20.6713 176.183 20.6713C176.183 20.6713 176.828 21.8974 178.278 22.5779C178.278 22.5779 177.956 22.9181 177.674 22.7485C177.392 22.5779 178.399 24.6888 180.494 25.642C180.494 25.642 180.897 26.1529 179.931 25.642C178.964 25.1658 179.809 26.5278 179.124 25.642C178.44 24.7572 179.003 26.494 178.319 25.642C177.633 24.7909 178.44 26.494 177.754 25.7442C177.069 25.0299 178.399 26.6984 177.352 25.8126C176.304 24.9615 176.949 26.0854 176.707 25.881L175.78 25.9485C175.78 25.9485 176.465 28.5712 176.465 28.843L173.685 28.8768C173.644 28.6387 174.37 25.9485 174.37 25.9485L173.564 25.8464C173.322 26.0507 173.967 24.9278 172.919 25.7789C171.831 26.63 173.161 24.9615 172.517 25.7104C171.831 26.4256 172.637 24.7572 171.952 25.6083C171.267 26.4594 171.872 24.7234 171.146 25.6083C170.462 26.494 171.307 25.1321 170.34 25.6083C169.373 26.1191 169.776 25.6083 169.776 25.6083C171.872 24.655 172.879 22.5441 172.637 22.7138C172.355 22.8844 172.033 22.5441 172.033 22.5441C173.484 21.8627 174.128 20.6376 174.128 20.6376C174.128 20.6376 174.048 20.3648 173.644 20.5692C173.241 20.7735 173.564 20.3986 173.241 20.5354C172.919 20.6713 173.12 20.2627 172.637 20.5008C172.153 20.7398 171.912 20.467 171.912 20.467C173.484 19.4116 174.048 18.2877 173.765 18.4236C173.484 18.5258 173.282 18.3561 173.282 18.3561C174.168 17.6063 174.773 16.5171 174.611 16.5855C174.491 16.6877 174.611 16.2106 174.33 16.5509C174.048 16.892 174.33 16.279 174.048 16.4149C173.765 16.5855 174.048 16.279 173.765 16.4149C173.484 16.5509 173.201 16.3812 173.201 16.3812C174.249 15.6322 174.894 14.4062 174.732 14.4737C174.611 14.5421 174.41 14.5421 174.41 14.5421C174.813 13.7932 175.095 12.465 175.095 12.465Z" fill="#CDCDCD" fill-opacity="0.8"/>
<path fill-rule="evenodd" clip-rule="evenodd" d="M180.938 19.6193C180.938 19.6193 181.14 20.5042 181.462 21.0488C181.462 21.0488 181.341 21.0488 181.26 21.015C181.179 20.9813 181.583 21.7986 182.308 22.3095C182.308 22.3095 182.107 22.4107 181.905 22.3432C181.703 22.241 181.905 22.4454 181.703 22.3432C181.542 22.241 181.703 22.6497 181.502 22.4454C181.3 22.2073 181.421 22.5475 181.341 22.4791C181.26 22.4107 181.664 23.1606 182.227 23.6714C182.227 23.6714 182.107 23.8073 181.905 23.7389C181.703 23.6714 182.107 24.4203 183.153 25.1355C183.153 25.1355 182.993 25.3052 182.67 25.1693C182.348 24.9987 182.469 25.3052 182.267 25.203C182.026 25.1008 182.267 25.3736 181.986 25.2377C181.703 25.1008 181.664 25.2714 181.664 25.2714C181.664 25.2714 182.107 26.0888 183.074 26.5312C183.074 26.5312 182.872 26.7693 182.67 26.6671C182.469 26.565 183.153 27.9953 184.565 28.6083C184.565 28.6083 184.846 28.9486 184.201 28.6083C183.557 28.2681 184.12 29.2213 183.637 28.6083C183.153 27.9953 183.557 29.1867 183.114 28.6083C182.67 28.0291 183.194 29.1867 182.751 28.6767C182.308 28.1997 183.194 29.3235 182.469 28.7442C181.743 28.1659 182.186 28.9148 182.026 28.778L181.421 28.8464C181.421 28.8464 181.905 30.617 181.865 30.7876L180.011 30.8214C179.971 30.6508 180.454 28.8464 180.454 28.8464L179.931 28.778C179.769 28.9148 180.212 28.1659 179.487 28.7442C178.762 29.3235 179.649 28.1997 179.205 28.6767C178.762 29.1529 179.286 28.0291 178.842 28.6083C178.399 29.1867 178.802 27.9953 178.319 28.6083C177.835 29.2213 178.44 28.2681 177.754 28.6083C177.11 28.9486 177.392 28.6083 177.392 28.6083C178.802 27.9616 179.487 26.565 179.286 26.6671C179.085 26.7693 178.883 26.5312 178.883 26.5312C179.85 26.0888 180.293 25.2714 180.293 25.2714C180.293 25.2714 180.253 25.1008 179.971 25.2377C179.688 25.3736 179.931 25.1355 179.688 25.203C179.447 25.3052 179.609 25.0333 179.286 25.1693C178.964 25.3398 178.802 25.1355 178.802 25.1355C179.85 24.4203 180.253 23.6714 180.052 23.7389C179.85 23.8073 179.729 23.6714 179.729 23.6714C180.333 23.1606 180.736 22.4107 180.616 22.4791C180.535 22.5475 180.616 22.241 180.454 22.4454C180.253 22.6835 180.454 22.241 180.253 22.3432C180.092 22.4454 180.253 22.241 180.052 22.3432C179.85 22.4454 179.649 22.3095 179.649 22.3095C180.333 21.7986 180.776 20.9813 180.696 21.015C180.616 21.0488 180.495 21.0488 180.495 21.0488C180.776 20.5042 180.938 19.6193 180.938 19.6193Z" fill="#CDCDCD" fill-opacity="0.8"/>
<path d="M44.8363 44.2348C43.9221 44.2348 43.2106 44.0149 42.7018 43.5743C42.1929 43.1319 41.9385 42.4961 41.9385 41.666V38.3674H42.9174V41.6331C42.9174 42.8765 43.5599 43.4977 44.845 43.4977C45.4713 43.4977 45.9511 43.3444 46.2853 43.0379C46.6184 42.7314 46.7855 42.2635 46.7855 41.6331V38.3674H47.7342V41.666C47.7342 42.5006 47.4798 43.1383 46.9709 43.578C46.4621 44.0158 45.7506 44.2348 44.8363 44.2348Z" fill="white"/>
<path d="M61.744 38.3674V44.1691H60.9376L56.8279 39.8452V44.1691H55.8447V38.3674H56.6511L60.7608 42.6949V38.3674H61.744Z" fill="white"/>
<path d="M69.9092 38.3674H70.8924V44.1691H69.9092V38.3674Z" fill="white"/>
<path d="M85.4125 44.1691L85.4039 39.9437L82.9243 43.4648H82.4758L79.9962 39.9692V44.1691H79.0562V38.3674H79.8626L82.7216 42.4468L85.5419 38.3674H86.3439L86.3526 44.1691H85.4125Z" fill="white"/>
<path d="M99.4954 43.4466V44.1691H94.519V38.3674H99.3575V39.0898H95.5022V40.8705H98.9392V41.5747H95.5022V43.4466H99.4954Z" fill="white"/>
<path d="M108.541 39.0898H106.19V38.3674H111.861V39.0898H109.511V44.1691H108.541V39.0898Z" fill="white"/>
<path d="M123.629 44.1691L122.15 42.3884C121.969 42.3985 121.825 42.403 121.719 42.403H120.029V44.1691H119.045V38.3674H121.719C122.607 38.3674 123.306 38.548 123.815 38.9074C124.326 39.2677 124.582 39.7612 124.582 40.3888C124.582 40.8367 124.451 41.219 124.19 41.5346C123.928 41.8484 123.556 42.0774 123.073 42.2206L124.699 44.1691H123.629ZM121.693 41.6988C122.311 41.6988 122.782 41.5857 123.108 41.3594C123.435 41.1332 123.599 40.8103 123.599 40.3888C123.599 39.9711 123.435 39.6499 123.108 39.4255C122.782 39.2021 122.311 39.0898 121.693 39.0898H120.029V41.6988H121.693Z" fill="white"/>
<path d="M136.633 42.7205H132.993L132.239 44.1691H131.229L134.334 38.3674H135.3L138.418 44.1691H137.387L136.633 42.7205ZM136.292 42.0564L134.813 39.2139L133.334 42.0564H136.292Z" fill="white"/>
<path d="M145.548 38.3674H146.532V44.1691H145.548V38.3674Z" fill="white"/>
<path d="M154.7 38.3674H155.683V43.4466H159.391V44.1691H154.7V38.3674Z" fill="white"/>
</svg>
