<svg width="80" height="80" viewBox="0 0 80 80" fill="none" xmlns="http://www.w3.org/2000/svg">
<g id="Icon/Maps/Signpost">
<path id="Vector" d="M76.875 33.3281L66.3531 21.6563C65.8845 21.1352 65.3115 20.7185 64.6714 20.4332C64.0313 20.1478 63.3383 20.0003 62.6375 20H42.5V10C42.5 9.33696 42.2366 8.70107 41.7678 8.23223C41.2989 7.76339 40.663 7.5 40 7.5C39.337 7.5 38.7011 7.76339 38.2322 8.23223C37.7634 8.70107 37.5 9.33696 37.5 10V20H12.5C11.1739 20 9.90215 20.5268 8.96447 21.4645C8.02678 22.4021 7.5 23.6739 7.5 25V45C7.5 46.3261 8.02678 47.5979 8.96447 48.5355C9.90215 49.4732 11.1739 50 12.5 50H37.5V70C37.5 70.663 37.7634 71.2989 38.2322 71.7678C38.7011 72.2366 39.337 72.5 40 72.5C40.663 72.5 41.2989 72.2366 41.7678 71.7678C42.2366 71.2989 42.5 70.663 42.5 70V50H62.6375C63.3383 49.9997 64.0313 49.8522 64.6714 49.5668C65.3115 49.2815 65.8845 48.8648 66.3531 48.3437L76.875 36.6719C77.2879 36.2129 77.5163 35.6174 77.5163 35C77.5163 34.3826 77.2879 33.7871 76.875 33.3281ZM62.6375 45H12.5V25H62.6375L71.6375 35L62.6375 45Z" fill="#FAFAFA"/>
</g>
</svg>
