<svg width="80" height="80" viewBox="0 0 80 80" fill="none" xmlns="http://www.w3.org/2000/svg">
<g id="Icon/Maps/Tipi">
<path id="Vector" d="M74.6063 66.1528L42.9688 16.7184L49.6063 6.34657C49.7832 6.06997 49.9039 5.76124 49.9614 5.43801C50.019 5.11479 50.0123 4.78338 49.9418 4.46273C49.8713 4.14208 49.7383 3.83846 49.5505 3.5692C49.3626 3.29994 49.1236 3.07032 48.847 2.89344C48.5704 2.71657 48.2616 2.5959 47.9384 2.53834C47.6152 2.48078 47.2838 2.48745 46.9631 2.55796C46.6425 2.62848 46.3388 2.76146 46.0696 2.94931C45.8003 3.13717 45.5707 3.37622 45.3938 3.65282L40.0001 12.0809L34.6063 3.64344C34.2491 3.08483 33.6846 2.691 33.037 2.54859C32.3895 2.40618 31.7118 2.52685 31.1532 2.88407C30.5946 3.24128 30.2008 3.80577 30.0584 4.45336C29.9159 5.10094 30.0366 5.77858 30.3938 6.33719L37.0313 16.7184L5.39384 66.1528C5.15223 66.5306 5.01669 66.9665 5.00145 67.4147C4.9862 67.8629 5.0918 68.307 5.30717 68.7003C5.52255 69.0937 5.83977 69.4219 6.22559 69.6505C6.61141 69.8791 7.05162 69.9997 7.50009 69.9997H72.5001C72.9485 69.9997 73.3888 69.8791 73.7746 69.6505C74.1604 69.4219 74.4776 69.0937 74.693 68.7003C74.9084 68.307 75.014 67.8629 74.9987 67.4147C74.9835 66.9665 74.8479 66.5306 74.6063 66.1528ZM26.9688 64.9997L40.0001 44.6372L53.0313 64.9997H26.9688ZM58.9688 64.9997L42.0938 38.6528C41.8678 38.2993 41.5563 38.0083 41.1882 37.8067C40.8201 37.6052 40.4072 37.4996 39.9876 37.4996C39.5679 37.4996 39.155 37.6052 38.7869 37.8067C38.4188 38.0083 38.1074 38.2993 37.8813 38.6528L21.0313 64.9997H12.0688L40.0001 21.3559L67.9313 64.9997H58.9688Z" fill="#FAFAFA"/>
</g>
</svg>
