<svg width="500" height="20" viewBox="0 0 500 20" fill="none" xmlns="http://www.w3.org/2000/svg">
<line y1="9.5" x2="236.014" y2="9.5" stroke="#00796B"/>
<line x1="263.986" y1="9.5" x2="500" y2="9.5" stroke="#00796B"/>
<path d="M250.44 16.096C249.587 16.096 248.829 15.9093 248.168 15.536C247.507 15.1627 246.984 14.6507 246.6 14C246.216 13.3387 246.024 12.592 246.024 11.76C246.024 10.9173 246.216 10.1707 246.6 9.52C246.984 8.86933 247.507 8.36267 248.168 8C248.829 7.62667 249.587 7.44 250.44 7.44C251.283 7.44 252.035 7.62667 252.696 8C253.368 8.36267 253.891 8.86933 254.264 9.52C254.648 10.16 254.84 10.9067 254.84 11.76C254.84 12.6027 254.648 13.3493 254.264 14C253.891 14.6507 253.368 15.1627 252.696 15.536C252.035 15.9093 251.283 16.096 250.44 16.096ZM250.44 14.752C250.984 14.752 251.469 14.6293 251.896 14.384C252.333 14.1387 252.675 13.792 252.92 13.344C253.165 12.8853 253.288 12.3573 253.288 11.76C253.288 11.152 253.165 10.6293 252.92 10.192C252.675 9.744 252.333 9.39733 251.896 9.152C251.469 8.90667 250.984 8.784 250.44 8.784C249.896 8.784 249.411 8.90667 248.984 9.152C248.557 9.39733 248.216 9.744 247.96 10.192C247.704 10.6293 247.576 11.152 247.576 11.76C247.576 12.3573 247.704 12.8853 247.96 13.344C248.216 13.792 248.557 14.1387 248.984 14.384C249.411 14.6293 249.896 14.752 250.44 14.752Z" fill="#00796B"/>
</svg>
