<svg width="80" height="80" viewBox="0 0 80 80" fill="none" xmlns="http://www.w3.org/2000/svg">
<g id="Icon/People/UsersFour">
<path id="Vector" d="M8.5 39.4997C8.76264 39.6966 9.06151 39.84 9.37955 39.9214C9.69758 40.0029 10.0285 40.021 10.3536 39.9745C10.6786 39.9281 10.9912 39.8181 11.2737 39.6508C11.5562 39.4836 11.803 39.2623 12 38.9997C13.5136 36.9815 15.4764 35.3434 17.7328 34.2152C19.9892 33.087 22.4773 32.4996 25 32.4996C27.5227 32.4996 30.0108 33.087 32.2672 34.2152C34.5236 35.3434 36.4864 36.9815 38 38.9997C38.3983 39.5296 38.9908 39.8797 39.6471 39.9728C40.3035 40.066 40.97 39.8947 41.5 39.4965C41.689 39.356 41.8564 39.1886 41.9969 38.9997C43.5105 36.9815 45.4733 35.3434 47.7297 34.2152C49.9861 33.087 52.4741 32.4996 54.9969 32.4996C57.5196 32.4996 60.0077 33.087 62.2641 34.2152C64.5205 35.3434 66.4832 36.9815 67.9969 38.9997C68.3951 39.5301 68.9878 39.8806 69.6444 39.9741C70.3011 40.0675 70.968 39.8963 71.4984 39.4981C72.0289 39.0998 72.3794 38.5072 72.4729 37.8505C72.5663 37.1939 72.3951 36.527 71.9969 35.9965C69.784 33.0299 66.833 30.6941 63.4375 29.2215C65.299 27.522 66.6032 25.2993 67.179 22.8453C67.7547 20.3912 67.575 17.8205 66.6636 15.4703C65.7521 13.1202 64.1515 11.1006 62.0716 9.67644C59.9918 8.25231 57.53 7.49023 55.0094 7.49023C52.4887 7.49023 50.0269 8.25231 47.9471 9.67644C45.8673 11.1006 44.2666 13.1202 43.3552 15.4703C42.4437 17.8205 42.2641 20.3912 42.8398 22.8453C43.4155 25.2993 44.7197 27.522 46.5812 29.2215C44.1295 30.2817 41.9023 31.7994 40.0187 33.6934C38.1352 31.7994 35.908 30.2817 33.4562 29.2215C35.3178 27.522 36.622 25.2993 37.1977 22.8453C37.7734 20.3912 37.5938 17.8205 36.6823 15.4703C35.7709 13.1202 34.1702 11.1006 32.0904 9.67644C30.0106 8.25231 27.5488 7.49023 25.0281 7.49023C22.5075 7.49023 20.0457 8.25231 17.9659 9.67644C15.886 11.1006 14.2854 13.1202 13.3739 15.4703C12.4625 17.8205 12.2828 20.3912 12.8585 22.8453C13.4343 25.2993 14.7385 27.522 16.6 29.2215C13.1895 30.6893 10.2241 33.0266 8 35.9996C7.80302 36.2623 7.65969 36.5612 7.57822 36.8792C7.49674 37.1972 7.4787 37.5282 7.52513 37.8532C7.57156 38.1782 7.68155 38.4909 7.84881 38.7734C8.01608 39.0559 8.23736 39.3027 8.5 39.4997ZM55 12.4996C56.4834 12.4996 57.9334 12.9395 59.1668 13.7636C60.4001 14.5877 61.3614 15.7591 61.9291 17.1295C62.4968 18.5 62.6453 20.008 62.3559 21.4628C62.0665 22.9177 61.3522 24.2541 60.3033 25.303C59.2544 26.3518 57.918 27.0662 56.4632 27.3555C55.0083 27.6449 53.5003 27.4964 52.1299 26.9287C50.7594 26.3611 49.5881 25.3998 48.764 24.1664C47.9399 22.9331 47.5 21.483 47.5 19.9996C47.5 18.0105 48.2902 16.1029 49.6967 14.6963C51.1032 13.2898 53.0109 12.4996 55 12.4996ZM25 12.4996C26.4834 12.4996 27.9334 12.9395 29.1668 13.7636C30.4001 14.5877 31.3614 15.7591 31.9291 17.1295C32.4968 18.5 32.6453 20.008 32.3559 21.4628C32.0665 22.9177 31.3522 24.2541 30.3033 25.303C29.2544 26.3518 27.918 27.0662 26.4632 27.3555C25.0083 27.6449 23.5003 27.4964 22.1299 26.9287C20.7594 26.3611 19.5881 25.3998 18.764 24.1664C17.9399 22.9331 17.5 21.483 17.5 19.9996C17.5 18.0105 18.2902 16.1029 19.6967 14.6963C21.1032 13.2898 23.0109 12.4996 25 12.4996ZM63.4375 61.7215C65.299 60.022 66.6032 57.7993 67.179 55.3453C67.7547 52.8912 67.575 50.3205 66.6636 47.9703C65.7521 45.6202 64.1515 43.6006 62.0716 42.1764C59.9918 40.7523 57.53 39.9902 55.0094 39.9902C52.4887 39.9902 50.0269 40.7523 47.9471 42.1764C45.8673 43.6006 44.2666 45.6202 43.3552 47.9703C42.4437 50.3205 42.2641 52.8912 42.8398 55.3453C43.4155 57.7993 44.7197 60.022 46.5812 61.7215C44.1295 62.7817 41.9023 64.2994 40.0187 66.1934C38.1352 64.2994 35.908 62.7817 33.4562 61.7215C35.3178 60.022 36.622 57.7993 37.1977 55.3453C37.7734 52.8912 37.5938 50.3205 36.6823 47.9703C35.7709 45.6202 34.1702 43.6006 32.0904 42.1764C30.0106 40.7523 27.5488 39.9902 25.0281 39.9902C22.5075 39.9902 20.0457 40.7523 17.9659 42.1764C15.886 43.6006 14.2854 45.6202 13.3739 47.9703C12.4625 50.3205 12.2828 52.8912 12.8585 55.3453C13.4343 57.7993 14.7385 60.022 16.6 61.7215C13.1895 63.1893 10.2241 65.5266 8 68.4996C7.80302 68.7623 7.65969 69.0612 7.57822 69.3792C7.49674 69.6972 7.4787 70.0282 7.52513 70.3532C7.57156 70.6782 7.68155 70.9909 7.84881 71.2734C8.01608 71.5559 8.23736 71.8027 8.5 71.9996C8.76264 72.1966 9.06151 72.34 9.37955 72.4214C9.69758 72.5029 10.0285 72.521 10.3536 72.4745C10.6786 72.4281 10.9912 72.3181 11.2737 72.1508C11.5562 71.9836 11.803 71.7623 12 71.4996C13.5136 69.4815 15.4764 67.8434 17.7328 66.7152C19.9892 65.587 22.4773 64.9996 25 64.9996C27.5227 64.9996 30.0108 65.587 32.2672 66.7152C34.5236 67.8434 36.4864 69.4815 38 71.4996C38.3983 72.0296 38.9908 72.3797 39.6471 72.4728C40.3035 72.566 40.97 72.3947 41.5 71.9965C41.689 71.856 41.8564 71.6886 41.9969 71.4996C43.5105 69.4815 45.4733 67.8434 47.7297 66.7152C49.9861 65.587 52.4741 64.9996 54.9969 64.9996C57.5196 64.9996 60.0077 65.587 62.2641 66.7152C64.5205 67.8434 66.4832 69.4815 67.9969 71.4996C68.3951 72.0301 68.9878 72.3806 69.6444 72.4741C70.3011 72.5675 70.968 72.3963 71.4984 71.9981C72.0289 71.5998 72.3794 71.0072 72.4729 70.3505C72.5663 69.6939 72.3951 69.027 71.9969 68.4965C69.784 65.5299 66.833 63.1941 63.4375 61.7215ZM25 44.9996C26.4834 44.9996 27.9334 45.4395 29.1668 46.2636C30.4001 47.0877 31.3614 48.2591 31.9291 49.6295C32.4968 51 32.6453 52.508 32.3559 53.9628C32.0665 55.4177 31.3522 56.7541 30.3033 57.8029C29.2544 58.8518 27.918 59.5661 26.4632 59.8555C25.0083 60.1449 23.5003 59.9964 22.1299 59.4287C20.7594 58.8611 19.5881 57.8998 18.764 56.6664C17.9399 55.4331 17.5 53.983 17.5 52.4996C17.5 50.5105 18.2902 48.6029 19.6967 47.1963C21.1032 45.7898 23.0109 44.9996 25 44.9996ZM55 44.9996C56.4834 44.9996 57.9334 45.4395 59.1668 46.2636C60.4001 47.0877 61.3614 48.2591 61.9291 49.6295C62.4968 51 62.6453 52.508 62.3559 53.9628C62.0665 55.4177 61.3522 56.7541 60.3033 57.8029C59.2544 58.8518 57.918 59.5661 56.4632 59.8555C55.0083 60.1449 53.5003 59.9964 52.1299 59.4287C50.7594 58.8611 49.5881 57.8998 48.764 56.6664C47.9399 55.4331 47.5 53.983 47.5 52.4996C47.5 50.5105 48.2902 48.6029 49.6967 47.1963C51.1032 45.7898 53.0109 44.9996 55 44.9996Z" fill="#FAFAFA"/>
</g>
</svg>
