<svg width="219" height="54" viewBox="0 0 219 54" fill="none" xmlns="http://www.w3.org/2000/svg">
<rect width="54" height="54" rx="27" fill="#CCE4E1"/>
<path d="M35.6783 38.5714H29.7166C30.7181 37.6772 31.6625 36.7211 32.5444 35.7087C35.8531 31.9034 37.6069 27.892 37.6069 24.1071C37.6069 21.294 36.4893 18.596 34.5001 16.6068C32.5109 14.6175 29.8129 13.5 26.9997 13.5C24.1865 13.5 21.4886 14.6175 19.4993 16.6068C17.5101 18.596 16.3926 21.294 16.3926 24.1071C16.3926 27.892 18.1416 31.9034 21.4551 35.7087C22.3369 36.7211 23.2814 37.6772 24.2828 38.5714H18.3211C18.0654 38.5714 17.8201 38.673 17.6393 38.8539C17.4585 39.0347 17.3569 39.28 17.3569 39.5357C17.3569 39.7915 17.4585 40.0367 17.6393 40.2176C17.8201 40.3984 18.0654 40.5 18.3211 40.5H35.6783C35.934 40.5 36.1793 40.3984 36.3601 40.2176C36.541 40.0367 36.6426 39.7915 36.6426 39.5357C36.6426 39.28 36.541 39.0347 36.3601 38.8539C36.1793 38.673 35.934 38.5714 35.6783 38.5714ZM18.3211 24.1071C18.3211 21.8054 19.2355 19.598 20.863 17.9705C22.4906 16.3429 24.698 15.4286 26.9997 15.4286C29.3014 15.4286 31.5089 16.3429 33.1364 17.9705C34.7639 19.598 35.6783 21.8054 35.6783 24.1071C35.6783 31.0054 28.9922 36.7634 26.9997 38.3304C25.0073 36.7634 18.3211 31.0054 18.3211 24.1071ZM31.8212 24.1071C31.8212 23.1536 31.5384 22.2214 31.0086 21.4285C30.4788 20.6356 29.7258 20.0176 28.8448 19.6527C27.9638 19.2878 26.9944 19.1923 26.0591 19.3784C25.1238 19.5644 24.2647 20.0236 23.5905 20.6979C22.9162 21.3722 22.457 22.2313 22.2709 23.1665C22.0849 24.1018 22.1804 25.0712 22.5453 25.9522C22.9102 26.8332 23.5282 27.5862 24.3211 28.116C25.114 28.6458 26.0461 28.9286 26.9997 28.9286C28.2784 28.9286 29.5048 28.4206 30.409 27.5164C31.3132 26.6122 31.8212 25.3859 31.8212 24.1071ZM24.1069 24.1071C24.1069 23.535 24.2765 22.9757 24.5944 22.5C24.9123 22.0242 25.3641 21.6534 25.8927 21.4345C26.4213 21.2155 27.0029 21.1582 27.5641 21.2699C28.1253 21.3815 28.6407 21.657 29.0453 22.0616C29.4499 22.4662 29.7254 22.9816 29.837 23.5428C29.9486 24.1039 29.8913 24.6856 29.6724 25.2142C29.4534 25.7428 29.0826 26.1946 28.6069 26.5125C28.1312 26.8303 27.5719 27 26.9997 27C26.2325 27 25.4967 26.6952 24.9542 26.1527C24.4116 25.6102 24.1069 24.8744 24.1069 24.1071Z" fill="#212121"/>
<rect x="62" width="157" height="54" rx="27" fill="#CCE4E1"/>
<path d="M86.98 23V12.92H88.303L91.957 20.501L95.59 12.92H96.927V22.993H95.541V16.098L92.286 23H91.621L88.359 16.098V23H86.98ZM102.171 23.21C101.415 23.21 100.76 23.0397 100.204 22.699C99.6489 22.3583 99.2195 21.8893 98.9162 21.292C98.6175 20.69 98.4682 19.997 98.4682 19.213C98.4682 18.4243 98.6222 17.7313 98.9302 17.134C99.2382 16.532 99.6699 16.0653 100.225 15.734C100.781 15.398 101.429 15.23 102.171 15.23C102.927 15.23 103.583 15.4003 104.138 15.741C104.694 16.0817 105.123 16.5507 105.426 17.148C105.73 17.7453 105.881 18.4337 105.881 19.213C105.881 20.0017 105.727 20.697 105.419 21.299C105.116 21.8963 104.687 22.3653 104.131 22.706C103.576 23.042 102.923 23.21 102.171 23.21ZM102.171 21.831C102.895 21.831 103.434 21.5883 103.788 21.103C104.148 20.613 104.327 19.983 104.327 19.213C104.327 18.4243 104.145 17.7943 103.781 17.323C103.422 16.847 102.885 16.609 102.171 16.609C101.681 16.609 101.278 16.721 100.96 16.945C100.643 17.1643 100.407 17.47 100.253 17.862C100.099 18.2493 100.022 18.6997 100.022 19.213C100.022 20.0063 100.204 20.641 100.568 21.117C100.932 21.593 101.467 21.831 102.171 21.831ZM112.725 23V19.283C112.725 18.989 112.7 18.688 112.648 18.38C112.602 18.0673 112.508 17.778 112.368 17.512C112.233 17.246 112.039 17.0313 111.787 16.868C111.54 16.7047 111.216 16.623 110.814 16.623C110.553 16.623 110.306 16.6673 110.072 16.756C109.839 16.84 109.634 16.9777 109.456 17.169C109.284 17.3603 109.146 17.6123 109.043 17.925C108.945 18.2377 108.896 18.618 108.896 19.066L107.986 18.723C107.986 18.037 108.115 17.4327 108.371 16.91C108.628 16.3827 108.997 15.972 109.477 15.678C109.958 15.384 110.539 15.237 111.22 15.237C111.743 15.237 112.182 15.321 112.536 15.489C112.891 15.657 113.178 15.8787 113.397 16.154C113.621 16.4247 113.792 16.721 113.908 17.043C114.025 17.365 114.104 17.68 114.146 17.988C114.188 18.296 114.209 18.5667 114.209 18.8V23H112.725ZM107.412 23V15.44H108.721V17.624H108.896V23H107.412ZM120.359 23C119.883 23.0933 119.416 23.133 118.959 23.119C118.501 23.105 118.093 23.0163 117.734 22.853C117.374 22.6897 117.104 22.433 116.922 22.083C116.758 21.7703 116.67 21.453 116.656 21.131C116.646 20.8043 116.642 20.4357 116.642 20.025V13.34H118.112V19.955C118.112 20.2583 118.114 20.522 118.119 20.746C118.128 20.97 118.177 21.159 118.266 21.313C118.434 21.6023 118.7 21.768 119.064 21.81C119.432 21.8473 119.864 21.831 120.359 21.761V23ZM115.193 16.616V15.44H120.359V16.616H115.193ZM124.088 23.21C123.528 23.21 123.059 23.1073 122.681 22.902C122.303 22.692 122.016 22.4167 121.82 22.076C121.628 21.7307 121.533 21.3527 121.533 20.942C121.533 20.5593 121.6 20.2233 121.736 19.934C121.871 19.6447 122.072 19.3997 122.338 19.199C122.604 18.9937 122.93 18.828 123.318 18.702C123.654 18.604 124.034 18.5177 124.459 18.443C124.883 18.3683 125.329 18.2983 125.796 18.233C126.267 18.1677 126.734 18.1023 127.196 18.037L126.664 18.331C126.673 17.7383 126.547 17.2997 126.286 17.015C126.029 16.7257 125.586 16.581 124.956 16.581C124.559 16.581 124.195 16.6743 123.864 16.861C123.532 17.043 123.301 17.3463 123.171 17.771L121.806 17.351C121.992 16.7023 122.347 16.1867 122.87 15.804C123.397 15.4213 124.097 15.23 124.97 15.23C125.646 15.23 126.234 15.3467 126.734 15.58C127.238 15.8087 127.606 16.1727 127.84 16.672C127.961 16.9193 128.036 17.1807 128.064 17.456C128.092 17.7313 128.106 18.0277 128.106 18.345V23H126.811V21.271L127.063 21.495C126.75 22.0737 126.351 22.5053 125.866 22.79C125.385 23.07 124.792 23.21 124.088 23.21ZM124.347 22.013C124.762 22.013 125.119 21.9407 125.418 21.796C125.716 21.6467 125.957 21.4577 126.139 21.229C126.321 21.0003 126.44 20.7623 126.496 20.515C126.575 20.291 126.619 20.039 126.629 19.759C126.643 19.479 126.65 19.255 126.65 19.087L127.126 19.262C126.664 19.332 126.244 19.395 125.866 19.451C125.488 19.507 125.145 19.563 124.837 19.619C124.533 19.6703 124.263 19.7333 124.025 19.808C123.824 19.878 123.644 19.962 123.486 20.06C123.332 20.158 123.208 20.277 123.115 20.417C123.026 20.557 122.982 20.7273 122.982 20.928C122.982 21.124 123.031 21.306 123.129 21.474C123.227 21.6373 123.376 21.768 123.577 21.866C123.777 21.964 124.034 22.013 124.347 22.013ZM134.382 14.292C134.172 14.292 133.967 14.2453 133.766 14.152C133.57 14.0587 133.381 13.9537 133.199 13.837C133.017 13.7157 132.847 13.6083 132.688 13.515C132.53 13.4217 132.38 13.375 132.24 13.375C132.082 13.375 131.977 13.452 131.925 13.606C131.874 13.7553 131.876 13.9303 131.932 14.131H130.98C130.854 13.613 130.889 13.1767 131.085 12.822C131.281 12.4627 131.629 12.283 132.128 12.283C132.343 12.283 132.548 12.3297 132.744 12.423C132.94 12.5163 133.129 12.6237 133.311 12.745C133.493 12.8617 133.664 12.9667 133.822 13.06C133.986 13.1533 134.135 13.2 134.27 13.2C134.424 13.2 134.529 13.1277 134.585 12.983C134.646 12.8337 134.646 12.6517 134.585 12.437H135.537C135.663 12.9457 135.628 13.382 135.432 13.746C135.236 14.11 134.886 14.292 134.382 14.292ZM135.229 23V19.283C135.229 18.989 135.204 18.688 135.152 18.38C135.106 18.0673 135.012 17.778 134.872 17.512C134.737 17.246 134.543 17.0313 134.291 16.868C134.044 16.7047 133.72 16.623 133.318 16.623C133.057 16.623 132.81 16.6673 132.576 16.756C132.343 16.84 132.138 16.9777 131.96 17.169C131.788 17.3603 131.65 17.6123 131.547 17.925C131.449 18.2377 131.4 18.618 131.4 19.066L130.49 18.723C130.49 18.037 130.619 17.4327 130.875 16.91C131.132 16.3827 131.501 15.972 131.981 15.678C132.462 15.384 133.043 15.237 133.724 15.237C134.247 15.237 134.686 15.321 135.04 15.489C135.395 15.657 135.682 15.8787 135.901 16.154C136.125 16.4247 136.296 16.721 136.412 17.043C136.529 17.365 136.608 17.68 136.65 17.988C136.692 18.296 136.713 18.5667 136.713 18.8V23H135.229ZM129.916 23V15.44H131.225V17.624H131.4V23H129.916ZM140.672 23.21C140.112 23.21 139.643 23.1073 139.265 22.902C138.887 22.692 138.6 22.4167 138.404 22.076C138.212 21.7307 138.117 21.3527 138.117 20.942C138.117 20.5593 138.184 20.2233 138.32 19.934C138.455 19.6447 138.656 19.3997 138.922 19.199C139.188 18.9937 139.514 18.828 139.902 18.702C140.238 18.604 140.618 18.5177 141.043 18.443C141.467 18.3683 141.913 18.2983 142.38 18.233C142.851 18.1677 143.318 18.1023 143.78 18.037L143.248 18.331C143.257 17.7383 143.131 17.2997 142.87 17.015C142.613 16.7257 142.17 16.581 141.54 16.581C141.143 16.581 140.779 16.6743 140.448 16.861C140.116 17.043 139.885 17.3463 139.755 17.771L138.39 17.351C138.576 16.7023 138.931 16.1867 139.454 15.804C139.981 15.4213 140.681 15.23 141.554 15.23C142.23 15.23 142.818 15.3467 143.318 15.58C143.822 15.8087 144.19 16.1727 144.424 16.672C144.545 16.9193 144.62 17.1807 144.648 17.456C144.676 17.7313 144.69 18.0277 144.69 18.345V23H143.395V21.271L143.647 21.495C143.334 22.0737 142.935 22.5053 142.45 22.79C141.969 23.07 141.376 23.21 140.672 23.21ZM140.931 22.013C141.346 22.013 141.703 21.9407 142.002 21.796C142.3 21.6467 142.541 21.4577 142.723 21.229C142.905 21.0003 143.024 20.7623 143.08 20.515C143.159 20.291 143.203 20.039 143.213 19.759C143.227 19.479 143.234 19.255 143.234 19.087L143.71 19.262C143.248 19.332 142.828 19.395 142.45 19.451C142.072 19.507 141.729 19.563 141.421 19.619C141.117 19.6703 140.847 19.7333 140.609 19.808C140.408 19.878 140.228 19.962 140.07 20.06C139.916 20.158 139.792 20.277 139.699 20.417C139.61 20.557 139.566 20.7273 139.566 20.928C139.566 21.124 139.615 21.306 139.713 21.474C139.811 21.6373 139.96 21.768 140.161 21.866C140.361 21.964 140.618 22.013 140.931 22.013ZM149.31 23V12.92H155.75V14.299H150.773V17.127H154.91V18.506H150.773V21.621H155.75V23H149.31ZM157.571 23V12.71H159.034V23H157.571ZM168.286 11.8H167.138L168.139 9.35H169.287L168.286 11.8ZM163.239 23L166.515 12.92H168.622L171.898 23H170.379L167.362 13.802H167.74L164.758 23H163.239ZM164.94 20.725V19.353H170.204V20.725H164.94ZM174.637 23L171.893 15.44H173.37L175.379 21.166L177.388 15.44H178.865L176.121 23H174.637ZM180.266 14.201V12.78H181.729V14.201H180.266ZM180.266 23V15.44H181.729V23H180.266ZM183.972 23V12.71H185.435V23H183.972ZM189.672 23.21C189.112 23.21 188.643 23.1073 188.265 22.902C187.887 22.692 187.6 22.4167 187.404 22.076C187.212 21.7307 187.117 21.3527 187.117 20.942C187.117 20.5593 187.184 20.2233 187.32 19.934C187.455 19.6447 187.656 19.3997 187.922 19.199C188.188 18.9937 188.514 18.828 188.902 18.702C189.238 18.604 189.618 18.5177 190.043 18.443C190.467 18.3683 190.913 18.2983 191.38 18.233C191.851 18.1677 192.318 18.1023 192.78 18.037L192.248 18.331C192.257 17.7383 192.131 17.2997 191.87 17.015C191.613 16.7257 191.17 16.581 190.54 16.581C190.143 16.581 189.779 16.6743 189.448 16.861C189.116 17.043 188.885 17.3463 188.755 17.771L187.39 17.351C187.576 16.7023 187.931 16.1867 188.454 15.804C188.981 15.4213 189.681 15.23 190.554 15.23C191.23 15.23 191.818 15.3467 192.318 15.58C192.822 15.8087 193.19 16.1727 193.424 16.672C193.545 16.9193 193.62 17.1807 193.648 17.456C193.676 17.7313 193.69 18.0277 193.69 18.345V23H192.395V21.271L192.647 21.495C192.334 22.0737 191.935 22.5053 191.45 22.79C190.969 23.07 190.376 23.21 189.672 23.21ZM189.931 22.013C190.346 22.013 190.703 21.9407 191.002 21.796C191.3 21.6467 191.541 21.4577 191.723 21.229C191.905 21.0003 192.024 20.7623 192.08 20.515C192.159 20.291 192.203 20.039 192.213 19.759C192.227 19.479 192.234 19.255 192.234 19.087L192.71 19.262C192.248 19.332 191.828 19.395 191.45 19.451C191.072 19.507 190.729 19.563 190.421 19.619C190.117 19.6703 189.847 19.7333 189.609 19.808C189.408 19.878 189.228 19.962 189.07 20.06C188.916 20.158 188.792 20.277 188.699 20.417C188.61 20.557 188.566 20.7273 188.566 20.928C188.566 21.124 188.615 21.306 188.713 21.474C188.811 21.6373 188.96 21.768 189.161 21.866C189.361 21.964 189.618 22.013 189.931 22.013Z" fill="#212121"/>
<path d="M90.338 42.18C89.478 42.18 88.752 41.99 88.16 41.61C87.568 41.226 87.12 40.696 86.816 40.02C86.512 39.344 86.36 38.564 86.36 37.68C86.36 36.796 86.512 36.016 86.816 35.34C87.12 34.664 87.568 34.136 88.16 33.756C88.752 33.372 89.478 33.18 90.338 33.18C91.342 33.18 92.162 33.438 92.798 33.954C93.434 34.466 93.87 35.154 94.106 36.018L93.206 36.252C93.022 35.568 92.692 35.026 92.216 34.626C91.74 34.226 91.114 34.026 90.338 34.026C89.662 34.026 89.1 34.18 88.652 34.488C88.204 34.796 87.866 35.226 87.638 35.778C87.414 36.326 87.298 36.96 87.29 37.68C87.286 38.4 87.396 39.034 87.62 39.582C87.848 40.13 88.188 40.56 88.64 40.872C89.096 41.18 89.662 41.334 90.338 41.334C91.114 41.334 91.74 41.134 92.216 40.734C92.692 40.33 93.022 39.788 93.206 39.108L94.106 39.342C93.87 40.206 93.434 40.896 92.798 41.412C92.162 41.924 91.342 42.18 90.338 42.18ZM97.2838 42.18C96.7958 42.18 96.3858 42.092 96.0538 41.916C95.7258 41.74 95.4798 41.506 95.3158 41.214C95.1518 40.922 95.0698 40.604 95.0698 40.26C95.0698 39.908 95.1398 39.608 95.2798 39.36C95.4238 39.108 95.6178 38.902 95.8618 38.742C96.1098 38.582 96.3958 38.46 96.7198 38.376C97.0478 38.296 97.4098 38.226 97.8058 38.166C98.2058 38.102 98.5958 38.048 98.9758 38.004C99.3598 37.956 99.6958 37.91 99.9838 37.866L99.6718 38.058C99.6838 37.418 99.5598 36.944 99.2998 36.636C99.0398 36.328 98.5878 36.174 97.9438 36.174C97.4998 36.174 97.1238 36.274 96.8158 36.474C96.5118 36.674 96.2978 36.99 96.1738 37.422L95.3158 37.17C95.4638 36.59 95.7618 36.14 96.2098 35.82C96.6578 35.5 97.2398 35.34 97.9558 35.34C98.5478 35.34 99.0498 35.452 99.4618 35.676C99.8778 35.896 100.172 36.216 100.344 36.636C100.424 36.824 100.476 37.034 100.5 37.266C100.524 37.498 100.536 37.734 100.536 37.974V42H99.7498V40.374L99.9778 40.47C99.7578 41.026 99.4158 41.45 98.9518 41.742C98.4878 42.034 97.9318 42.18 97.2838 42.18ZM97.3858 41.418C97.7978 41.418 98.1578 41.344 98.4658 41.196C98.7738 41.048 99.0218 40.846 99.2098 40.59C99.3978 40.33 99.5198 40.038 99.5758 39.714C99.6238 39.506 99.6498 39.278 99.6538 39.03C99.6578 38.778 99.6598 38.59 99.6598 38.466L99.9958 38.64C99.6958 38.68 99.3698 38.72 99.0178 38.76C98.6698 38.8 98.3258 38.846 97.9858 38.898C97.6498 38.95 97.3458 39.012 97.0738 39.084C96.8898 39.136 96.7118 39.21 96.5398 39.306C96.3678 39.398 96.2258 39.522 96.1138 39.678C96.0058 39.834 95.9518 40.028 95.9518 40.26C95.9518 40.448 95.9978 40.63 96.0898 40.806C96.1858 40.982 96.3378 41.128 96.5458 41.244C96.7578 41.36 97.0378 41.418 97.3858 41.418ZM102.098 42V35.52H102.89V37.08L102.734 36.876C102.806 36.684 102.9 36.508 103.016 36.348C103.132 36.184 103.258 36.05 103.394 35.946C103.562 35.798 103.758 35.686 103.982 35.61C104.206 35.53 104.432 35.484 104.66 35.472C104.888 35.456 105.096 35.472 105.284 35.52V36.348C105.048 36.288 104.79 36.274 104.51 36.306C104.23 36.338 103.972 36.45 103.736 36.642C103.52 36.81 103.358 37.012 103.25 37.248C103.142 37.48 103.07 37.728 103.034 37.992C102.998 38.252 102.98 38.51 102.98 38.766V42H102.098ZM108.03 42.18C107.542 42.18 107.132 42.092 106.8 41.916C106.472 41.74 106.226 41.506 106.062 41.214C105.898 40.922 105.816 40.604 105.816 40.26C105.816 39.908 105.886 39.608 106.026 39.36C106.17 39.108 106.364 38.902 106.608 38.742C106.856 38.582 107.142 38.46 107.466 38.376C107.794 38.296 108.156 38.226 108.552 38.166C108.952 38.102 109.342 38.048 109.722 38.004C110.106 37.956 110.442 37.91 110.73 37.866L110.418 38.058C110.43 37.418 110.306 36.944 110.046 36.636C109.786 36.328 109.334 36.174 108.69 36.174C108.246 36.174 107.87 36.274 107.562 36.474C107.258 36.674 107.044 36.99 106.92 37.422L106.062 37.17C106.21 36.59 106.508 36.14 106.956 35.82C107.404 35.5 107.986 35.34 108.702 35.34C109.294 35.34 109.796 35.452 110.208 35.676C110.624 35.896 110.918 36.216 111.09 36.636C111.17 36.824 111.222 37.034 111.246 37.266C111.27 37.498 111.282 37.734 111.282 37.974V42H110.496V40.374L110.724 40.47C110.504 41.026 110.162 41.45 109.698 41.742C109.234 42.034 108.678 42.18 108.03 42.18ZM108.132 41.418C108.544 41.418 108.904 41.344 109.212 41.196C109.52 41.048 109.768 40.846 109.956 40.59C110.144 40.33 110.266 40.038 110.322 39.714C110.37 39.506 110.396 39.278 110.4 39.03C110.404 38.778 110.406 38.59 110.406 38.466L110.742 38.64C110.442 38.68 110.116 38.72 109.764 38.76C109.416 38.8 109.072 38.846 108.732 38.898C108.396 38.95 108.092 39.012 107.82 39.084C107.636 39.136 107.458 39.21 107.286 39.306C107.114 39.398 106.972 39.522 106.86 39.678C106.752 39.834 106.698 40.028 106.698 40.26C106.698 40.448 106.744 40.63 106.836 40.806C106.932 40.982 107.084 41.128 107.292 41.244C107.504 41.36 107.784 41.418 108.132 41.418ZM115.532 42.18C114.88 42.18 114.328 42.034 113.876 41.742C113.424 41.45 113.08 41.048 112.844 40.536C112.612 40.02 112.492 39.428 112.484 38.76C112.492 38.08 112.616 37.484 112.856 36.972C113.096 36.456 113.442 36.056 113.894 35.772C114.346 35.484 114.894 35.34 115.538 35.34C116.194 35.34 116.764 35.5 117.248 35.82C117.736 36.14 118.07 36.578 118.25 37.134L117.386 37.41C117.234 37.022 116.992 36.722 116.66 36.51C116.332 36.294 115.956 36.186 115.532 36.186C115.056 36.186 114.662 36.296 114.35 36.516C114.038 36.732 113.806 37.034 113.654 37.422C113.502 37.81 113.424 38.256 113.42 38.76C113.428 39.536 113.608 40.16 113.96 40.632C114.312 41.1 114.836 41.334 115.532 41.334C115.972 41.334 116.346 41.234 116.654 41.034C116.966 40.83 117.202 40.534 117.362 40.146L118.25 40.41C118.01 40.986 117.658 41.426 117.194 41.73C116.73 42.03 116.176 42.18 115.532 42.18ZM121.307 42.18C120.819 42.18 120.409 42.092 120.077 41.916C119.749 41.74 119.503 41.506 119.339 41.214C119.175 40.922 119.093 40.604 119.093 40.26C119.093 39.908 119.163 39.608 119.303 39.36C119.447 39.108 119.641 38.902 119.885 38.742C120.133 38.582 120.419 38.46 120.743 38.376C121.071 38.296 121.433 38.226 121.829 38.166C122.229 38.102 122.619 38.048 122.999 38.004C123.383 37.956 123.719 37.91 124.007 37.866L123.695 38.058C123.707 37.418 123.583 36.944 123.323 36.636C123.063 36.328 122.611 36.174 121.967 36.174C121.523 36.174 121.147 36.274 120.839 36.474C120.535 36.674 120.321 36.99 120.197 37.422L119.339 37.17C119.487 36.59 119.785 36.14 120.233 35.82C120.681 35.5 121.263 35.34 121.979 35.34C122.571 35.34 123.073 35.452 123.485 35.676C123.901 35.896 124.195 36.216 124.367 36.636C124.447 36.824 124.499 37.034 124.523 37.266C124.547 37.498 124.559 37.734 124.559 37.974V42H123.773V40.374L124.001 40.47C123.781 41.026 123.439 41.45 122.975 41.742C122.511 42.034 121.955 42.18 121.307 42.18ZM121.409 41.418C121.821 41.418 122.181 41.344 122.489 41.196C122.797 41.048 123.045 40.846 123.233 40.59C123.421 40.33 123.543 40.038 123.599 39.714C123.647 39.506 123.673 39.278 123.677 39.03C123.681 38.778 123.683 38.59 123.683 38.466L124.019 38.64C123.719 38.68 123.393 38.72 123.041 38.76C122.693 38.8 122.349 38.846 122.009 38.898C121.673 38.95 121.369 39.012 121.097 39.084C120.913 39.136 120.735 39.21 120.563 39.306C120.391 39.398 120.249 39.522 120.137 39.678C120.029 39.834 119.975 40.028 119.975 40.26C119.975 40.448 120.021 40.63 120.113 40.806C120.209 40.982 120.361 41.128 120.569 41.244C120.781 41.36 121.061 41.418 121.409 41.418ZM128.539 42.174C127.779 42.174 127.153 42.01 126.661 41.682C126.173 41.354 125.873 40.898 125.761 40.314L126.661 40.164C126.757 40.532 126.975 40.826 127.315 41.046C127.659 41.262 128.083 41.37 128.587 41.37C129.079 41.37 129.467 41.268 129.751 41.064C130.035 40.856 130.177 40.574 130.177 40.218C130.177 40.018 130.131 39.856 130.039 39.732C129.951 39.604 129.769 39.486 129.493 39.378C129.217 39.27 128.805 39.142 128.257 38.994C127.669 38.834 127.209 38.674 126.877 38.514C126.545 38.354 126.309 38.17 126.169 37.962C126.029 37.75 125.959 37.492 125.959 37.188C125.959 36.82 126.063 36.498 126.271 36.222C126.479 35.942 126.767 35.726 127.135 35.574C127.503 35.418 127.931 35.34 128.419 35.34C128.907 35.34 129.343 35.42 129.727 35.58C130.115 35.736 130.427 35.956 130.663 36.24C130.899 36.524 131.039 36.854 131.083 37.23L130.183 37.392C130.123 37.012 129.933 36.712 129.613 36.492C129.297 36.268 128.895 36.152 128.407 36.144C127.947 36.132 127.573 36.22 127.285 36.408C126.997 36.592 126.853 36.838 126.853 37.146C126.853 37.318 126.905 37.466 127.009 37.59C127.113 37.71 127.301 37.824 127.573 37.932C127.849 38.04 128.241 38.158 128.749 38.286C129.345 38.438 129.813 38.598 130.153 38.766C130.493 38.934 130.735 39.132 130.879 39.36C131.023 39.588 131.095 39.87 131.095 40.206C131.095 40.818 130.867 41.3 130.411 41.652C129.959 42 129.335 42.174 128.539 42.174Z" fill="#616161"/>
</svg>
