<svg width="80" height="80" viewBox="0 0 80 80" fill="none" xmlns="http://www.w3.org/2000/svg">
<g id="Icon/Maps/Path">
<path id="Vector" d="M62.5 52.5C60.283 52.5021 58.1293 53.2395 56.3763 54.5967C54.6232 55.9539 53.3699 57.8542 52.8125 60H22.5C19.8478 60 17.3043 58.9464 15.4289 57.0711C13.5536 55.1957 12.5 52.6522 12.5 50C12.5 47.3478 13.5536 44.8043 15.4289 42.9289C17.3043 41.0536 19.8478 40 22.5 40H52.5C55.8152 40 58.9946 38.683 61.3388 36.3388C63.683 33.9946 65 30.8152 65 27.5C65 24.1848 63.683 21.0054 61.3388 18.6612C58.9946 16.317 55.8152 15 52.5 15H22.5C21.837 15 21.2011 15.2634 20.7322 15.7322C20.2634 16.2011 20 16.837 20 17.5C20 18.163 20.2634 18.7989 20.7322 19.2678C21.2011 19.7366 21.837 20 22.5 20H52.5C54.4891 20 56.3968 20.7902 57.8033 22.1967C59.2098 23.6032 60 25.5109 60 27.5C60 29.4891 59.2098 31.3968 57.8033 32.8033C56.3968 34.2098 54.4891 35 52.5 35H22.5C18.5218 35 14.7064 36.5804 11.8934 39.3934C9.08035 42.2064 7.5 46.0218 7.5 50C7.5 53.9782 9.08035 57.7936 11.8934 60.6066C14.7064 63.4197 18.5218 65 22.5 65H52.8125C53.28 66.8107 54.246 68.4541 55.6006 69.7434C56.9552 71.0328 58.6442 71.9164 60.4758 72.294C62.3074 72.6716 64.2082 72.5281 65.9623 71.8796C67.7164 71.2312 69.2535 70.1039 70.3991 68.6257C71.5447 67.1475 72.2528 65.3778 72.4431 63.5173C72.6333 61.6569 72.2981 59.7804 71.4754 58.101C70.6527 56.4215 69.3756 55.0064 67.7891 54.0163C66.2025 53.0263 64.3701 52.5009 62.5 52.5ZM62.5 67.5C61.5111 67.5 60.5444 67.2068 59.7221 66.6573C58.8999 66.1079 58.259 65.327 57.8806 64.4134C57.5022 63.4998 57.4031 62.4945 57.5961 61.5245C57.789 60.5546 58.2652 59.6637 58.9645 58.9645C59.6637 58.2652 60.5546 57.789 61.5245 57.5961C62.4945 57.4031 63.4998 57.5022 64.4134 57.8806C65.327 58.259 66.1079 58.8999 66.6573 59.7221C67.2068 60.5444 67.5 61.5111 67.5 62.5C67.5 63.8261 66.9732 65.0979 66.0355 66.0355C65.0979 66.9732 63.8261 67.5 62.5 67.5Z" fill="#FAFAFA"/>
</g>
</svg>
