<svg width="202" height="44" viewBox="0 0 202 44" fill="none" xmlns="http://www.w3.org/2000/svg">
<path fill-rule="evenodd" clip-rule="evenodd" d="M22.102 9.56485C22.102 9.56485 22.5042 11.4714 23.2297 12.5952C23.2297 12.5952 22.9473 12.5952 22.7467 12.4931C22.5451 12.3909 23.4712 14.1615 24.9622 15.2516C24.9622 15.2516 24.559 15.4897 24.1159 15.2854C23.6728 15.081 24.076 15.5235 23.6728 15.2854C23.2696 15.0473 23.6728 15.9659 23.2696 15.456C22.8675 14.9451 23.0691 15.6256 22.8675 15.4897C22.6659 15.3538 23.5521 16.9538 24.8015 18.0093C24.8015 18.0093 24.5191 18.282 24.1159 18.1114C23.7138 17.9408 24.5191 19.5755 26.7755 21.0734C26.7755 21.0734 26.4133 21.4821 25.7276 21.1418C25.043 20.8016 25.3255 21.4146 24.8414 21.2102C24.3585 21.0059 24.8015 21.5842 24.2366 21.2777C23.6728 20.9712 23.5521 21.3799 23.5521 21.3799C23.5521 21.3799 24.4792 23.1505 26.534 24.1038C26.534 24.1038 26.0909 24.5809 25.6877 24.3765C25.2845 24.1385 26.7356 27.2026 29.7974 28.5645C29.7974 28.5645 30.4022 29.2797 28.992 28.5645C27.5819 27.8494 28.8303 29.859 27.8234 28.5645C26.8154 27.271 27.6617 29.7906 26.6946 28.5645C25.7276 27.3385 26.8564 29.7906 25.8893 28.7351C24.9223 27.6797 26.8154 30.0971 25.2845 28.8373C23.7537 27.5775 24.7207 29.2113 24.3585 28.9048L23.0281 29.007C23.0281 29.007 24.0361 32.8209 23.9951 33.1612L20.0063 33.2296C19.9664 32.8547 20.9733 29.0416 20.9733 29.0416L19.8047 28.9048C19.4424 29.1775 20.4095 27.5775 18.8786 28.8373C17.3466 30.0971 19.2408 27.6797 18.2738 28.7351C17.3068 29.7906 18.4355 27.3385 17.4685 28.5645C16.5014 29.7906 17.3466 27.271 16.3397 28.5645C15.3328 29.859 16.5812 27.8494 15.1711 28.5645C13.761 29.2797 14.3658 28.5645 14.3658 28.5645C17.3876 27.2026 18.8786 24.1722 18.4754 24.3765C18.0722 24.6146 17.6291 24.1038 17.6291 24.1038C19.6839 23.1505 20.6111 21.3799 20.6111 21.3799C20.6111 21.3799 20.4903 20.9712 19.9254 21.2777C19.3616 21.5842 19.8047 21.0396 19.3217 21.2102C18.8376 21.4146 19.1201 20.8016 18.4355 21.1418C17.7498 21.4821 17.3876 21.0734 17.3876 21.0734C19.644 19.5755 20.4493 17.9408 20.0472 18.1114C19.644 18.282 19.3616 18.0093 19.3616 18.0093C20.6111 16.9201 21.4972 15.3191 21.2956 15.4897C21.094 15.6256 21.2956 14.9451 20.8924 15.456C20.4903 15.9659 20.8525 15.0473 20.4903 15.2854C20.0871 15.5235 20.4903 15.081 20.0472 15.2854C19.6031 15.4897 19.2009 15.2516 19.2009 15.2516C20.6919 14.1615 21.618 12.3909 21.4164 12.4931C21.2148 12.5952 20.9334 12.5952 20.9334 12.5952C21.6988 11.4714 22.102 9.56485 22.102 9.56485Z" fill="black"/>
<path fill-rule="evenodd" clip-rule="evenodd" d="M30.6054 13.0357C30.6054 13.0357 30.8867 14.3639 31.4107 15.1475C31.4107 15.1475 31.2091 15.1475 31.0883 15.0791C30.9277 15.0107 31.5724 16.2367 32.6192 16.9856C32.6192 16.9856 32.3378 17.1562 32.0554 17.0203C31.7729 16.8835 32.0155 17.19 31.7729 17.0203C31.5314 16.8497 31.7729 17.4965 31.4915 17.1562C31.2091 16.816 31.3708 17.2921 31.2091 17.19C31.0883 17.0878 31.6931 18.2117 32.5394 18.9606C32.5394 18.9606 32.3378 19.1649 32.0554 19.029C31.7729 18.9268 32.3378 20.0507 33.9086 21.0715C33.9086 21.0715 33.6671 21.3442 33.1841 21.1061C32.7001 20.8671 32.9017 21.2758 32.5793 21.1399C32.257 21.004 32.5394 21.4126 32.1761 21.1736C31.7729 20.9693 31.6931 21.2421 31.6931 21.2421C31.6931 21.2421 32.3378 22.4681 33.7878 23.1486C33.7878 23.1486 33.4655 23.4898 33.1841 23.3192C32.9017 23.1486 33.9086 25.2595 36.0443 26.2136C36.0443 26.2136 36.4475 26.7245 35.4804 26.2136C34.5134 25.7366 35.3597 27.0985 34.674 26.2136C33.9894 25.3279 34.5533 27.0647 33.8687 26.2136C33.1841 25.3616 33.9894 27.0647 33.3049 26.3158C32.6192 25.6006 33.9495 27.2691 32.9017 26.3833C31.8139 25.5322 32.4985 26.6561 32.257 26.4517L31.2899 26.5539C31.2899 26.5539 31.9745 29.1756 31.9745 29.4484L29.1942 29.4821C29.1543 29.244 29.8798 26.5539 29.8798 26.5539L29.0734 26.4517C28.8319 26.6561 29.4766 25.5322 28.4287 26.3833C27.3409 27.2344 28.6713 25.566 28.0266 26.3158C27.3409 27.0301 28.1473 25.3616 27.4617 26.2136C26.7771 27.0647 27.3819 25.3279 26.6564 26.2136C25.9718 27.0985 26.817 25.7366 25.85 26.2136C24.8829 26.7245 25.2861 26.2136 25.2861 26.2136C27.3819 25.2595 28.3888 23.1486 28.1473 23.3192C27.8649 23.4898 27.5425 23.1486 27.5425 23.1486C28.9936 22.4681 29.6383 21.2421 29.6383 21.2421C29.6383 21.2421 29.5575 20.9693 29.1543 21.1736C28.7511 21.378 29.0734 21.004 28.7511 21.1399C28.4287 21.2758 28.5904 20.8671 28.1473 21.1061C27.6633 21.3442 27.4218 21.0715 27.4218 21.0715C28.9936 20.016 29.5575 18.8922 29.275 19.029C28.9936 19.1312 28.792 18.9606 28.792 18.9606C29.6782 18.2117 30.283 17.1225 30.1213 17.19C30.0006 17.2921 30.1213 16.816 29.8388 17.1562C29.5575 17.4965 29.8388 16.8835 29.5575 17.0203C29.275 17.19 29.5575 16.8835 29.275 17.0203C28.9936 17.1562 28.7112 16.9856 28.7112 16.9856C29.7591 16.2367 30.3628 15.0107 30.242 15.0791C30.1213 15.1475 29.9197 15.1475 29.9197 15.1475C30.3229 14.3639 30.6054 13.0357 30.6054 13.0357Z" fill="black"/>
<path fill-rule="evenodd" clip-rule="evenodd" d="M14.8527 17.6684C14.8527 17.6684 15.1351 19.0303 15.6591 19.8477C15.6591 19.8477 15.4575 19.8477 15.3367 19.7792C15.175 19.7108 15.8607 20.9706 16.9075 21.7542C16.9075 21.7542 16.6261 21.9248 16.3038 21.7879C15.9814 21.652 16.2628 21.9585 15.9814 21.7879C15.699 21.6183 15.9814 22.265 15.699 21.9248C15.4165 21.5836 15.5782 22.0607 15.4165 21.9585C15.2559 21.8564 15.9006 22.9802 16.7867 23.7629C16.7867 23.7629 16.5851 23.9672 16.3038 23.8313C16.0213 23.6945 16.5851 24.853 18.1969 25.9422C18.1969 25.9422 17.9554 26.2149 17.4314 25.9759C16.9485 25.7379 17.1501 26.1465 16.7867 26.0106C16.4245 25.8738 16.7469 26.2824 16.3436 26.0444C15.9404 25.8063 15.8607 26.1128 15.8607 26.1128C15.8607 26.1128 16.5452 27.3725 17.9953 28.0531C17.9953 28.0531 17.6729 28.3933 17.3915 28.2236C17.1899 28.0877 18.2378 30.2661 20.4134 31.254C20.4134 31.254 20.8565 31.7649 19.8496 31.254C18.8416 30.7432 19.7288 32.1736 19.0033 31.254C18.2777 30.3345 18.8825 32.1389 18.1969 31.254C17.5123 30.3683 18.3176 32.1389 17.633 31.39C16.9485 30.641 18.3176 32.3779 17.1899 31.4584C16.1022 30.5726 16.7867 31.7302 16.5054 31.5268L15.5383 31.5943C15.5383 31.5943 16.2628 34.3182 16.2229 34.5572L13.3617 34.5909C13.3218 34.3182 14.0473 31.5943 14.0473 31.5943L13.2011 31.4921C12.9596 31.6965 13.6441 30.5389 12.5165 31.4246C11.4276 32.3095 12.758 30.6073 12.0723 31.3562C11.3877 32.1051 12.1941 30.3683 11.5085 31.2203C10.8239 32.1051 11.4276 30.3008 10.7032 31.2203C9.97761 32.1389 10.8638 30.7094 9.85686 31.2203C8.84886 31.7302 9.29303 31.2203 9.29303 31.2203C11.4686 30.2324 12.5165 28.0877 12.234 28.2236C11.9516 28.3942 11.6292 28.0531 11.6292 28.0531C13.1202 27.3725 13.7649 26.1128 13.7649 26.1128C13.7649 26.1128 13.684 25.84 13.2819 26.0444C12.8787 26.2824 13.2011 25.8738 12.8388 26.0106C12.4755 26.1465 12.6771 25.7379 12.1941 25.9759C11.7101 26.2149 11.4276 25.9422 11.4276 25.9422C13.0393 24.853 13.6441 23.6945 13.3218 23.8313C13.0393 23.9672 12.8388 23.7629 12.8388 23.7629C13.725 22.9802 14.3697 21.8564 14.208 21.9585C14.0473 22.0607 14.208 21.5836 13.9266 21.9248C13.6441 22.265 13.9266 21.6183 13.6441 21.7879C13.3617 21.9585 13.6441 21.652 13.3218 21.7879C12.9995 21.9248 12.717 21.7542 12.717 21.7542C13.8059 20.9706 14.4505 19.7108 14.2888 19.7792C14.1282 19.8477 13.9665 19.8477 13.9665 19.8477C14.5713 19.0303 14.8527 17.6684 14.8527 17.6684Z" fill="black"/>
<mask id="mask0_406_30682" style="mask-type:luminance" maskUnits="userSpaceOnUse" x="0" y="0" width="202" height="38">
<path d="M0 0.234772H201.72V37.3684H0V0.234772Z" fill="white"/>
</mask>
<g mask="url(#mask0_406_30682)">
<path fill-rule="evenodd" clip-rule="evenodd" d="M0.264282 37.3484C0.264282 37.3484 32.7802 29.0746 57.1975 15.2845L58.406 18.0768C58.406 18.0768 80.567 9.08785 88.8671 0.234772C88.8671 0.234772 93.5406 5.58037 95.9587 6.56739C98.3757 7.55532 100.994 6.15872 100.994 6.15872C100.994 6.15872 103.413 8.98568 113.123 12.765L113.647 11.2325L127.306 18.1106C127.306 18.1106 138.91 15.5911 148.741 8.98568C148.741 8.98568 152.73 15.727 157.404 17.8378C162.078 19.9496 161.03 16.9867 161.03 16.9867C161.03 16.9867 160.506 19.5063 175.576 26.2485C190.645 32.9907 192.982 33.8418 201.765 37.2809C197.777 37.144 178.839 30.743 169.17 27.9507C159.499 25.1246 151.884 21.6181 156.357 25.7039C160.87 29.7897 164.657 34.557 164.657 34.557C164.657 34.557 137.499 20.9367 135.404 22.6051C133.31 24.3073 136.775 28.4953 136.775 28.4953C136.775 28.4953 130.005 25.1246 124.646 24.4441C119.287 23.729 83.6686 35.8168 83.6686 35.8168C83.6686 35.8168 113.767 21.9246 112.397 20.4942C111.028 19.0976 79.8813 26.8268 68.4386 28.768C68.4386 28.768 99.5843 16.2716 96.281 13.4455C92.9767 10.6541 86.7713 14.8421 86.7713 14.8421C86.7713 14.8421 89.1894 10.3476 85.925 11.3346C82.6218 12.3226 71.7429 25.5333 41.6441 31.2876C41.6441 31.2876 59.7763 22.367 54.9001 22.2302C50.0251 22.128 30.5237 35.1016 0.264282 37.3484Z" fill="black"/>
</g>
<path fill-rule="evenodd" clip-rule="evenodd" d="M128.274 4.01602C128.274 4.01602 128.556 5.2758 128.999 5.99097C128.999 5.99097 128.838 5.99097 128.676 5.92256C128.556 5.85505 129.12 7.01266 130.127 7.72693C130.127 7.72693 129.845 7.89751 129.603 7.76159C129.321 7.62567 129.564 7.93126 129.321 7.76159C129.08 7.62567 129.321 8.20402 129.04 7.89751C128.757 7.55725 128.919 8.03343 128.798 7.93126C128.676 7.82909 129.241 8.88544 130.047 9.59971C130.047 9.59971 129.845 9.7703 129.603 9.66813C129.321 9.56596 129.886 10.6214 131.336 11.6093C131.336 11.6093 131.094 11.8812 130.651 11.6431C130.208 11.405 130.369 11.8137 130.088 11.6768C129.765 11.5409 130.047 11.9158 129.684 11.7115C129.321 11.5072 129.241 11.779 129.241 11.779C129.241 11.779 129.845 12.9366 131.215 13.5496C131.215 13.5496 130.933 13.8561 130.651 13.7202C130.369 13.5843 131.336 15.5592 133.311 16.4441C133.311 16.4441 133.713 16.9212 132.787 16.4441C131.86 15.967 132.666 17.2952 132.022 16.4441C131.377 15.593 131.9 17.2268 131.296 16.4441C130.651 15.6605 131.417 17.2268 130.772 16.5463C130.127 15.8648 131.377 17.4311 130.369 16.6147C129.362 15.7973 130.007 16.8528 129.765 16.6822L128.919 16.7506C128.919 16.7506 129.564 19.2364 129.564 19.4745L126.944 19.5082C126.904 19.2701 127.589 16.7506 127.589 16.7506L126.823 16.6822C126.582 16.8528 127.226 15.7973 126.219 16.6147C125.211 17.4311 126.461 15.8648 125.816 16.5463C125.171 17.2268 125.937 15.6267 125.292 16.4441C124.648 17.2268 125.211 15.593 124.567 16.4441C123.922 17.2952 124.728 15.967 123.801 16.4441C122.875 16.9212 123.277 16.4441 123.277 16.4441C125.252 15.5592 126.219 13.5843 125.937 13.7202C125.654 13.8561 125.373 13.5496 125.373 13.5496C126.702 12.9029 127.347 11.779 127.347 11.779C127.347 11.779 127.266 11.5072 126.904 11.7115C126.542 11.9158 126.823 11.5409 126.501 11.6768C126.178 11.8137 126.38 11.405 125.937 11.6431C125.494 11.8812 125.252 11.6093 125.252 11.6093C126.743 10.6214 127.266 9.56596 126.985 9.66813C126.702 9.7703 126.542 9.59971 126.542 9.59971C127.347 8.88544 127.911 7.86376 127.79 7.93126C127.669 8.03343 127.79 7.59101 127.549 7.89751C127.266 8.23777 127.549 7.62567 127.266 7.76159C127.025 7.89751 127.266 7.62567 126.985 7.76159C126.702 7.89751 126.461 7.72693 126.461 7.72693C127.428 7.01266 128.033 5.85505 127.911 5.92256C127.79 5.99097 127.589 5.99097 127.589 5.99097C128.033 5.2758 128.274 4.01602 128.274 4.01602Z" fill="black"/>
<path fill-rule="evenodd" clip-rule="evenodd" d="M133.834 6.29141C133.834 6.29141 134.035 7.14251 134.358 7.65335C134.358 7.65335 134.237 7.65335 134.156 7.6196C134.076 7.58494 134.478 8.36853 135.164 8.87938C135.164 8.87938 134.962 8.98154 134.801 8.91313C134.599 8.81096 134.801 9.0153 134.599 8.91313C134.438 8.81096 134.599 9.21963 134.399 8.98154C134.197 8.74254 134.318 9.04905 134.237 9.0153C134.156 8.94688 134.559 9.66206 135.123 10.1729C135.123 10.1729 135.002 10.3088 134.801 10.2413C134.6 10.1729 135.002 10.8881 136.01 11.5686C136.01 11.5686 135.849 11.7392 135.526 11.6033C135.204 11.4327 135.325 11.7054 135.123 11.637C134.921 11.5348 135.123 11.8076 134.842 11.6708C134.599 11.5348 134.519 11.7054 134.519 11.7054C134.519 11.7054 134.921 12.4881 135.888 12.9305C135.888 12.9305 135.688 13.1349 135.486 13.0327C135.285 12.9305 135.969 14.2925 137.34 14.9402C137.34 14.9402 137.622 15.2467 136.977 14.9402C136.333 14.6336 136.896 15.5185 136.453 14.9402C136.01 14.3609 136.373 15.4847 135.929 14.9402C135.486 14.3946 136.01 15.4847 135.566 15.0077C135.123 14.5315 135.969 15.6207 135.285 15.0761C134.6 14.4968 135.043 15.2467 134.882 15.1098L134.278 15.1445C134.278 15.1445 134.721 16.8804 134.721 17.0173L132.908 17.051C132.867 16.8804 133.351 15.1445 133.351 15.1445L132.827 15.0761C132.666 15.212 133.109 14.4631 132.424 15.0423C131.739 15.6207 132.585 14.4968 132.142 14.9739C131.699 15.451 132.222 14.3271 131.779 14.9055C131.336 15.451 131.739 14.3271 131.255 14.9055C130.812 15.4847 131.377 14.599 130.732 14.9055C130.087 15.212 130.369 14.9055 130.369 14.9055C131.739 14.2925 132.424 12.8968 132.222 12.999C132.021 13.1011 131.82 12.8968 131.82 12.8968C132.746 12.4544 133.189 11.6708 133.189 11.6708C133.189 11.6708 133.149 11.5011 132.867 11.637C132.625 11.7729 132.827 11.5348 132.585 11.6033C132.384 11.7054 132.504 11.4327 132.182 11.5686C131.86 11.7392 131.699 11.5348 131.699 11.5348C132.746 10.8534 133.109 10.1045 132.908 10.2067C132.706 10.2751 132.585 10.1391 132.585 10.1391C133.149 9.66206 133.552 8.91313 133.471 8.98154C133.391 9.04905 133.471 8.74254 133.311 8.94688C133.109 9.18588 133.311 8.77721 133.109 8.87938C132.947 8.98154 133.109 8.77721 132.908 8.87938C132.706 8.98154 132.544 8.84471 132.544 8.84471C133.23 8.36853 133.633 7.55119 133.552 7.58494C133.471 7.6196 133.351 7.6196 133.351 7.6196C133.633 7.14251 133.834 6.29141 133.834 6.29141Z" fill="black"/>
<path fill-rule="evenodd" clip-rule="evenodd" d="M123.561 9.32462C123.561 9.32462 123.763 10.2095 124.085 10.755C124.085 10.755 123.964 10.755 123.883 10.7203C123.803 10.6866 124.206 11.5039 124.931 12.0147C124.931 12.0147 124.73 12.1169 124.528 12.0485C124.326 11.9463 124.528 12.1507 124.326 12.0485C124.166 11.9463 124.326 12.355 124.125 12.1507C123.923 11.9126 124.044 12.2528 123.964 12.1844C123.883 12.1169 124.287 12.8658 124.85 13.3767C124.85 13.3767 124.73 13.5126 124.528 13.4442C124.326 13.3767 124.73 14.1256 125.778 14.8061C125.778 14.8061 125.616 14.9767 125.293 14.8408C124.971 14.6702 125.092 14.943 124.89 14.8746C124.649 14.7724 124.89 15.0451 124.609 14.9083C124.326 14.7724 124.287 14.943 124.287 14.943C124.287 14.943 124.73 15.7594 125.697 16.2027C125.697 16.2027 125.495 16.4408 125.293 16.3387C125.092 16.2365 125.778 17.6669 127.188 18.2799C127.188 18.2799 127.469 18.6201 126.824 18.2799C126.18 17.9387 126.745 18.892 126.261 18.2799C125.778 17.6669 126.18 18.8582 125.737 18.2799C125.293 17.7006 125.817 18.8582 125.374 18.3474C124.931 17.8712 125.817 18.9941 125.092 18.4158C124.366 17.8365 124.811 18.5864 124.649 18.4495L124.044 18.518C124.044 18.518 124.528 20.2886 124.488 20.4582L122.634 20.4929C122.594 20.3223 123.077 18.5517 123.077 18.5517L122.554 18.4842C122.392 18.6201 122.835 17.8712 122.111 18.4495C121.385 19.0288 122.272 17.9049 121.829 18.382C121.385 18.8582 121.909 17.7344 121.466 18.3136C121.022 18.892 121.425 17.7006 120.942 18.3136C120.458 18.9266 121.063 17.9734 120.377 18.3136C119.733 18.6539 120.015 18.3136 120.015 18.3136C121.425 17.6669 122.111 16.2702 121.909 16.3724C121.708 16.4746 121.506 16.2365 121.506 16.2365C122.473 15.7941 122.916 14.9767 122.916 14.9767C122.916 14.9767 122.876 14.8061 122.594 14.943C122.312 15.0789 122.554 14.8408 122.312 14.9083C122.07 15.0105 122.232 14.7386 121.909 14.8746C121.587 15.0451 121.425 14.8408 121.425 14.8408C122.473 14.1256 122.876 13.3767 122.675 13.4789C122.473 13.5464 122.352 13.4104 122.352 13.4104C122.956 12.8996 123.359 12.1507 123.239 12.2191C123.158 12.2866 123.239 11.9801 123.078 12.1844C122.876 12.4234 123.078 11.9801 122.876 12.0823C122.715 12.1844 122.876 11.9801 122.675 12.0823C122.473 12.1844 122.272 12.0485 122.272 12.0485C122.956 11.5377 123.399 10.7203 123.32 10.755C123.239 10.7887 123.118 10.7887 123.118 10.7887C123.359 10.2095 123.561 9.32462 123.561 9.32462Z" fill="black"/>
<path fill-rule="evenodd" clip-rule="evenodd" d="M175.095 12.0824C175.095 12.0824 175.377 13.4106 175.901 14.1933C175.901 14.1933 175.699 14.1933 175.578 14.1258C175.418 14.0574 176.063 15.2834 177.109 16.0323C177.109 16.0323 176.828 16.2029 176.545 16.0661C176.263 15.9302 176.506 16.2367 176.263 16.0661C175.982 15.8964 176.263 16.5432 175.982 16.2029C175.699 15.8617 175.861 16.3388 175.699 16.2367C175.539 16.1345 176.183 17.2584 177.03 18.0073C177.03 18.0073 176.828 18.2116 176.545 18.0757C176.263 17.9735 176.828 19.0965 178.399 20.1182C178.399 20.1182 178.157 20.3909 177.674 20.1528C177.19 19.9138 177.392 20.3225 177.069 20.1866C176.747 20.0507 177.03 20.4584 176.666 20.2203C176.263 20.016 176.183 20.2887 176.183 20.2887C176.183 20.2887 176.828 21.5148 178.278 22.1953C178.278 22.1953 177.956 22.5355 177.674 22.3659C177.392 22.1953 178.399 24.3062 180.494 25.2594C180.494 25.2594 180.897 25.7703 179.931 25.2594C178.964 24.7832 179.809 26.1452 179.124 25.2594C178.44 24.3746 179.003 26.1114 178.319 25.2594C177.633 24.4083 178.44 26.1114 177.754 25.3616C177.069 24.6473 178.399 26.3158 177.352 25.43C176.304 24.5789 176.949 25.7028 176.707 25.4984L175.78 25.5659C175.78 25.5659 176.465 28.1886 176.465 28.4604L173.685 28.4942C173.644 28.2561 174.37 25.5659 174.37 25.5659L173.564 25.4638C173.322 25.6681 173.967 24.5452 172.919 25.3963C171.831 26.2474 173.161 24.5789 172.517 25.3278C171.831 26.043 172.637 24.3746 171.952 25.2257C171.267 26.0768 171.872 24.3408 171.146 25.2257C170.462 26.1114 171.307 24.7495 170.34 25.2257C169.373 25.7365 169.776 25.2257 169.776 25.2257C171.872 24.2724 172.879 22.1615 172.637 22.3312C172.355 22.5018 172.033 22.1615 172.033 22.1615C173.484 21.4801 174.128 20.255 174.128 20.255C174.128 20.255 174.048 19.9822 173.644 20.1866C173.241 20.3909 173.564 20.016 173.241 20.1528C172.919 20.2887 173.12 19.8801 172.637 20.1182C172.153 20.3572 171.912 20.0844 171.912 20.0844C173.484 19.029 174.048 17.9051 173.765 18.041C173.484 18.1432 173.282 17.9735 173.282 17.9735C174.168 17.2237 174.773 16.1345 174.611 16.2029C174.491 16.3051 174.611 15.828 174.33 16.1683C174.048 16.5094 174.33 15.8964 174.048 16.0323C173.765 16.2029 174.048 15.8964 173.765 16.0323C173.484 16.1683 173.201 15.9986 173.201 15.9986C174.249 15.2497 174.894 14.0236 174.732 14.0911C174.611 14.1595 174.41 14.1595 174.41 14.1595C174.813 13.4106 175.095 12.0824 175.095 12.0824Z" fill="black"/>
<path fill-rule="evenodd" clip-rule="evenodd" d="M180.938 19.2367C180.938 19.2367 181.14 20.1216 181.462 20.6662C181.462 20.6662 181.341 20.6662 181.26 20.6324C181.179 20.5987 181.583 21.416 182.308 21.9269C182.308 21.9269 182.107 22.0281 181.905 21.9606C181.703 21.8584 181.905 22.0628 181.703 21.9606C181.542 21.8584 181.703 22.2671 181.502 22.0628C181.3 21.8247 181.421 22.1649 181.341 22.0965C181.26 22.0281 181.664 22.778 182.227 23.2888C182.227 23.2888 182.107 23.4247 181.905 23.3563C181.703 23.2888 182.107 24.0377 183.153 24.7529C183.153 24.7529 182.993 24.9226 182.67 24.7867C182.348 24.6161 182.469 24.9226 182.267 24.8204C182.026 24.7182 182.267 24.991 181.986 24.8551C181.703 24.7182 181.664 24.8888 181.664 24.8888C181.664 24.8888 182.107 25.7062 183.074 26.1486C183.074 26.1486 182.872 26.3867 182.67 26.2845C182.469 26.1824 183.153 27.6127 184.565 28.2257C184.565 28.2257 184.846 28.566 184.201 28.2257C183.557 27.8855 184.12 28.8387 183.637 28.2257C183.153 27.6127 183.557 28.8041 183.114 28.2257C182.67 27.6465 183.194 28.8041 182.751 28.2941C182.308 27.8171 183.194 28.9409 182.469 28.3616C181.743 27.7833 182.186 28.5322 182.026 28.3954L181.421 28.4638C181.421 28.4638 181.905 30.2344 181.865 30.405L180.011 30.4388C179.971 30.2682 180.454 28.4638 180.454 28.4638L179.931 28.3954C179.769 28.5322 180.212 27.7833 179.487 28.3616C178.762 28.9409 179.649 27.8171 179.205 28.2941C178.762 28.7703 179.286 27.6465 178.842 28.2257C178.399 28.8041 178.802 27.6127 178.319 28.2257C177.835 28.8387 178.44 27.8855 177.754 28.2257C177.11 28.566 177.392 28.2257 177.392 28.2257C178.802 27.579 179.487 26.1824 179.286 26.2845C179.085 26.3867 178.883 26.1486 178.883 26.1486C179.85 25.7062 180.293 24.8888 180.293 24.8888C180.293 24.8888 180.253 24.7182 179.971 24.8551C179.688 24.991 179.931 24.7529 179.688 24.8204C179.447 24.9226 179.609 24.6507 179.286 24.7867C178.964 24.9572 178.802 24.7529 178.802 24.7529C179.85 24.0377 180.253 23.2888 180.052 23.3563C179.85 23.4247 179.729 23.2888 179.729 23.2888C180.333 22.778 180.736 22.0281 180.616 22.0965C180.535 22.1649 180.616 21.8584 180.454 22.0628C180.253 22.3009 180.454 21.8584 180.253 21.9606C180.092 22.0628 180.253 21.8584 180.052 21.9606C179.85 22.0628 179.649 21.9269 179.649 21.9269C180.333 21.416 180.776 20.5987 180.696 20.6324C180.616 20.6662 180.495 20.6662 180.495 20.6662C180.776 20.1216 180.938 19.2367 180.938 19.2367Z" fill="black"/>
<path d="M44.8363 43.8522C43.9221 43.8522 43.2106 43.6323 42.7018 43.1917C42.1929 42.7493 41.9385 42.1135 41.9385 41.2834V37.9848H42.9174V41.2505C42.9174 42.4939 43.5599 43.1151 44.845 43.1151C45.4713 43.1151 45.9511 42.9618 46.2853 42.6553C46.6184 42.3488 46.7855 41.8809 46.7855 41.2505V37.9848H47.7342V41.2834C47.7342 42.118 47.4798 42.7557 46.9709 43.1954C46.4621 43.6332 45.7506 43.8522 44.8363 43.8522Z" fill="black"/>
<path d="M61.744 37.9848V43.7865H60.9376L56.8279 39.4626V43.7865H55.8447V37.9848H56.6511L60.7608 42.3123V37.9848H61.744Z" fill="black"/>
<path d="M69.9092 37.9848H70.8924V43.7865H69.9092V37.9848Z" fill="black"/>
<path d="M85.4125 43.7865L85.4039 39.5611L82.9243 43.0822H82.4758L79.9962 39.5866V43.7865H79.0562V37.9848H79.8626L82.7216 42.0642L85.5419 37.9848H86.3439L86.3526 43.7865H85.4125Z" fill="black"/>
<path d="M99.4954 43.064V43.7865H94.519V37.9848H99.3575V38.7072H95.5022V40.4879H98.9392V41.1921H95.5022V43.064H99.4954Z" fill="black"/>
<path d="M108.541 38.7072H106.19V37.9848H111.861V38.7072H109.511V43.7865H108.541V38.7072Z" fill="black"/>
<path d="M123.629 43.7865L122.15 42.0058C121.969 42.0159 121.825 42.0204 121.719 42.0204H120.029V43.7865H119.045V37.9848H121.719C122.607 37.9848 123.306 38.1654 123.815 38.5248C124.326 38.8851 124.582 39.3786 124.582 40.0062C124.582 40.4541 124.451 40.8364 124.19 41.152C123.928 41.4658 123.556 41.6948 123.073 41.838L124.699 43.7865H123.629ZM121.693 41.3162C122.311 41.3162 122.782 41.2031 123.108 40.9768C123.435 40.7506 123.599 40.4277 123.599 40.0062C123.599 39.5885 123.435 39.2674 123.108 39.0429C122.782 38.8195 122.311 38.7072 121.693 38.7072H120.029V41.3162H121.693Z" fill="black"/>
<path d="M136.633 42.3379H132.993L132.239 43.7865H131.229L134.334 37.9848H135.3L138.418 43.7865H137.387L136.633 42.3379ZM136.292 41.6738L134.813 38.8313L133.334 41.6738H136.292Z" fill="black"/>
<path d="M145.548 37.9848H146.532V43.7865H145.548V37.9848Z" fill="black"/>
<path d="M154.7 37.9848H155.683V43.064H159.391V43.7865H154.7V37.9848Z" fill="black"/>
</svg>
