<svg width="202" height="44" viewBox="0 0 202 44" fill="none" xmlns="http://www.w3.org/2000/svg">
<path fill-rule="evenodd" clip-rule="evenodd" d="M22.102 9.33008C22.102 9.33008 22.5042 11.2366 23.2297 12.3605C23.2297 12.3605 22.9473 12.3605 22.7467 12.2583C22.5451 12.1561 23.4712 13.9267 24.9622 15.0168C24.9622 15.0168 24.559 15.2549 24.1159 15.0506C23.6728 14.8463 24.076 15.2887 23.6728 15.0506C23.2696 14.8125 23.6728 15.7311 23.2696 15.2212C22.8675 14.7103 23.0691 15.3909 22.8675 15.2549C22.6659 15.119 23.5521 16.719 24.8015 17.7745C24.8015 17.7745 24.5191 18.0472 24.1159 17.8767C23.7138 17.7061 24.5191 19.3408 26.7755 20.8386C26.7755 20.8386 26.4133 21.2473 25.7276 20.907C25.043 20.5668 25.3255 21.1798 24.8414 20.9755C24.3585 20.7711 24.8015 21.3495 24.2366 21.043C23.6728 20.7365 23.5521 21.1451 23.5521 21.1451C23.5521 21.1451 24.4792 22.9157 26.534 23.869C26.534 23.869 26.0909 24.3461 25.6877 24.1418C25.2845 23.9037 26.7356 26.9678 29.7974 28.3298C29.7974 28.3298 30.4022 29.0449 28.992 28.3298C27.5819 27.6146 28.8303 29.6242 27.8234 28.3298C26.8154 27.0362 27.6617 29.5558 26.6946 28.3298C25.7276 27.1037 26.8564 29.5558 25.8893 28.5003C24.9223 27.4449 26.8154 29.8623 25.2845 28.6025C23.7537 27.3427 24.7207 28.9765 24.3585 28.67L23.0281 28.7722C23.0281 28.7722 24.0361 32.5862 23.9951 32.9264L20.0063 32.9948C19.9664 32.6199 20.9733 28.8069 20.9733 28.8069L19.8047 28.67C19.4424 28.9428 20.4095 27.3427 18.8786 28.6025C17.3466 29.8623 19.2408 27.4449 18.2738 28.5003C17.3068 29.5558 18.4355 27.1037 17.4685 28.3298C16.5014 29.5558 17.3466 27.0362 16.3397 28.3298C15.3328 29.6242 16.5812 27.6146 15.1711 28.3298C13.761 29.0449 14.3658 28.3298 14.3658 28.3298C17.3876 26.9678 18.8786 23.9374 18.4754 24.1418C18.0722 24.3799 17.6291 23.869 17.6291 23.869C19.6839 22.9157 20.6111 21.1451 20.6111 21.1451C20.6111 21.1451 20.4903 20.7365 19.9254 21.043C19.3616 21.3495 19.8047 20.8049 19.3217 20.9755C18.8376 21.1798 19.1201 20.5668 18.4355 20.907C17.7498 21.2473 17.3876 20.8386 17.3876 20.8386C19.644 19.3408 20.4493 17.7061 20.0472 17.8767C19.644 18.0472 19.3616 17.7745 19.3616 17.7745C20.6111 16.6853 21.4972 15.0844 21.2956 15.2549C21.094 15.3909 21.2956 14.7103 20.8924 15.2212C20.4903 15.7311 20.8525 14.8125 20.4903 15.0506C20.0871 15.2887 20.4903 14.8463 20.0472 15.0506C19.6031 15.2549 19.2009 15.0168 19.2009 15.0168C20.6919 13.9267 21.618 12.1561 21.4164 12.2583C21.2148 12.3605 20.9334 12.3605 20.9334 12.3605C21.6988 11.2366 22.102 9.33008 22.102 9.33008Z" fill="#CDCDCD" fill-opacity="0.8"/>
<path fill-rule="evenodd" clip-rule="evenodd" d="M30.6054 12.801C30.6054 12.801 30.8867 14.1292 31.4107 14.9128C31.4107 14.9128 31.2091 14.9128 31.0883 14.8443C30.9277 14.7759 31.5724 16.0019 32.6192 16.7509C32.6192 16.7509 32.3378 16.9215 32.0554 16.7855C31.7729 16.6487 32.0155 16.9552 31.7729 16.7855C31.5314 16.6149 31.7729 17.2617 31.4915 16.9215C31.2091 16.5812 31.3708 17.0574 31.2091 16.9552C31.0883 16.853 31.6931 17.9769 32.5394 18.7258C32.5394 18.7258 32.3378 18.9302 32.0554 18.7942C31.7729 18.6921 32.3378 19.8159 33.9086 20.8367C33.9086 20.8367 33.6671 21.1095 33.1841 20.8714C32.7001 20.6324 32.9017 21.041 32.5793 20.9051C32.257 20.7692 32.5394 21.1779 32.1761 20.9389C31.7729 20.7345 31.6931 21.0073 31.6931 21.0073C31.6931 21.0073 32.3378 22.2333 33.7878 22.9138C33.7878 22.9138 33.4655 23.255 33.1841 23.0844C32.9017 22.9138 33.9086 25.0247 36.0443 25.9789C36.0443 25.9789 36.4475 26.4897 35.4804 25.9789C34.5134 25.5018 35.3597 26.8637 34.674 25.9789C33.9894 25.0931 34.5533 26.83 33.8687 25.9789C33.1841 25.1269 33.9894 26.83 33.3049 26.081C32.6192 25.3659 33.9495 27.0343 32.9017 26.1485C31.8139 25.2974 32.4985 26.4213 32.257 26.217L31.2899 26.3191C31.2899 26.3191 31.9745 28.9408 31.9745 29.2136L29.1942 29.2474C29.1543 29.0093 29.8798 26.3191 29.8798 26.3191L29.0734 26.217C28.8319 26.4213 29.4766 25.2974 28.4287 26.1485C27.3409 26.9996 28.6713 25.3312 28.0266 26.081C27.3409 26.7953 28.1473 25.1269 27.4617 25.9789C26.7771 26.83 27.3819 25.0931 26.6564 25.9789C25.9718 26.8637 26.817 25.5018 25.85 25.9789C24.8829 26.4897 25.2861 25.9789 25.2861 25.9789C27.3819 25.0247 28.3888 22.9138 28.1473 23.0844C27.8649 23.255 27.5425 22.9138 27.5425 22.9138C28.9936 22.2333 29.6383 21.0073 29.6383 21.0073C29.6383 21.0073 29.5575 20.7345 29.1543 20.9389C28.7511 21.1432 29.0734 20.7692 28.7511 20.9051C28.4287 21.041 28.5904 20.6324 28.1473 20.8714C27.6633 21.1095 27.4218 20.8367 27.4218 20.8367C28.9936 19.7813 29.5575 18.6574 29.275 18.7942C28.9936 18.8964 28.792 18.7258 28.792 18.7258C29.6782 17.9769 30.283 16.8877 30.1213 16.9552C30.0006 17.0574 30.1213 16.5812 29.8388 16.9215C29.5575 17.2617 29.8388 16.6487 29.5575 16.7855C29.275 16.9552 29.5575 16.6487 29.275 16.7855C28.9936 16.9215 28.7112 16.7509 28.7112 16.7509C29.7591 16.0019 30.3628 14.7759 30.242 14.8443C30.1213 14.9128 29.9197 14.9128 29.9197 14.9128C30.3229 14.1292 30.6054 12.801 30.6054 12.801Z" fill="#CDCDCD" fill-opacity="0.8"/>
<path fill-rule="evenodd" clip-rule="evenodd" d="M14.8527 17.4336C14.8527 17.4336 15.1351 18.7955 15.6591 19.6129C15.6591 19.6129 15.4575 19.6129 15.3367 19.5445C15.175 19.4761 15.8607 20.7358 16.9075 21.5194C16.9075 21.5194 16.6261 21.69 16.3038 21.5532C15.9814 21.4173 16.2628 21.7238 15.9814 21.5532C15.699 21.3835 15.9814 22.0303 15.699 21.69C15.4165 21.3488 15.5782 21.8259 15.4165 21.7238C15.2559 21.6216 15.9006 22.7454 16.7867 23.5281C16.7867 23.5281 16.5851 23.7325 16.3038 23.5965C16.0213 23.4597 16.5851 24.6182 18.1969 25.7074C18.1969 25.7074 17.9554 25.9802 17.4314 25.7412C16.9485 25.5031 17.1501 25.9118 16.7867 25.7758C16.4245 25.639 16.7469 26.0477 16.3436 25.8096C15.9404 25.5715 15.8607 25.878 15.8607 25.878C15.8607 25.878 16.5452 27.1378 17.9953 27.8183C17.9953 27.8183 17.6729 28.1585 17.3915 27.9889C17.1899 27.853 18.2378 30.0313 20.4134 31.0193C20.4134 31.0193 20.8565 31.5301 19.8496 31.0193C18.8416 30.5084 19.7288 31.9388 19.0033 31.0193C18.2777 30.0997 18.8825 31.9041 18.1969 31.0193C17.5123 30.1335 18.3176 31.9041 17.633 31.1552C16.9485 30.4063 18.3176 32.1431 17.1899 31.2236C16.1022 30.3378 16.7867 31.4954 16.5054 31.292L15.5383 31.3595C15.5383 31.3595 16.2628 34.0834 16.2229 34.3224L13.3617 34.3562C13.3218 34.0834 14.0473 31.3595 14.0473 31.3595L13.2011 31.2574C12.9596 31.4617 13.6441 30.3041 12.5165 31.1898C11.4276 32.0747 12.758 30.3725 12.0723 31.1214C11.3877 31.8704 12.1941 30.1335 11.5085 30.9855C10.8239 31.8704 11.4276 30.066 10.7032 30.9855C9.97761 31.9041 10.8638 30.4747 9.85686 30.9855C8.84886 31.4954 9.29303 30.9855 9.29303 30.9855C11.4686 29.9976 12.5165 27.853 12.234 27.9889C11.9516 28.1595 11.6292 27.8183 11.6292 27.8183C13.1202 27.1378 13.7649 25.878 13.7649 25.878C13.7649 25.878 13.684 25.6052 13.2819 25.8096C12.8787 26.0477 13.2011 25.639 12.8388 25.7758C12.4755 25.9118 12.6771 25.5031 12.1941 25.7412C11.7101 25.9802 11.4276 25.7074 11.4276 25.7074C13.0393 24.6182 13.6441 23.4597 13.3218 23.5965C13.0393 23.7325 12.8388 23.5281 12.8388 23.5281C13.725 22.7454 14.3697 21.6216 14.208 21.7238C14.0473 21.8259 14.208 21.3488 13.9266 21.69C13.6441 22.0303 13.9266 21.3835 13.6441 21.5532C13.3617 21.7238 13.6441 21.4173 13.3218 21.5532C12.9995 21.69 12.717 21.5194 12.717 21.5194C13.8059 20.7358 14.4505 19.4761 14.2888 19.5445C14.1282 19.6129 13.9665 19.6129 13.9665 19.6129C14.5713 18.7955 14.8527 17.4336 14.8527 17.4336Z" fill="#CDCDCD" fill-opacity="0.8"/>
<mask id="mask0_406_30628" style="mask-type:luminance" maskUnits="userSpaceOnUse" x="0" y="0" width="202" height="38">
<path d="M0 0H201.72V37.1337H0V0Z" fill="white"/>
</mask>
<g mask="url(#mask0_406_30628)">
<path fill-rule="evenodd" clip-rule="evenodd" d="M0.264282 37.1136C0.264282 37.1136 32.7802 28.8398 57.1975 15.0498L58.406 17.8421C58.406 17.8421 80.567 8.85308 88.8671 0C88.8671 0 93.5406 5.3456 95.9587 6.33262C98.3757 7.32055 100.994 5.92395 100.994 5.92395C100.994 5.92395 103.413 8.75091 113.123 12.5302L113.647 10.9977L127.306 17.8758C127.306 17.8758 138.91 15.3563 148.741 8.75091C148.741 8.75091 152.73 15.4922 157.404 17.6031C162.078 19.7149 161.03 16.752 161.03 16.752C161.03 16.752 160.506 19.2715 175.576 26.0137C190.645 32.7559 192.982 33.607 201.765 37.0461C197.777 36.9093 178.839 30.5082 169.17 27.7159C159.499 24.8899 151.884 21.3833 156.357 25.4691C160.87 29.555 164.657 34.3222 164.657 34.3222C164.657 34.3222 137.499 20.7019 135.404 22.3703C133.31 24.0725 136.775 28.2605 136.775 28.2605C136.775 28.2605 130.005 24.8899 124.646 24.2094C119.287 23.4942 83.6686 35.582 83.6686 35.582C83.6686 35.582 113.767 21.6898 112.397 20.2595C111.028 18.8629 79.8813 26.5921 68.4386 28.5333C68.4386 28.5333 99.5843 16.0368 96.281 13.2107C92.9767 10.4194 86.7713 14.6074 86.7713 14.6074C86.7713 14.6074 89.1894 10.1129 85.925 11.0999C82.6218 12.0878 71.7429 25.2985 41.6441 31.0528C41.6441 31.0528 59.7763 22.1322 54.9001 21.9954C50.0251 21.8932 30.5237 34.8668 0.264282 37.1136Z" fill="#CDCDCD" fill-opacity="0.8"/>
</g>
<path fill-rule="evenodd" clip-rule="evenodd" d="M128.274 3.78125C128.274 3.78125 128.556 5.04102 128.999 5.7562C128.999 5.7562 128.838 5.7562 128.676 5.68779C128.556 5.62028 129.12 6.77789 130.127 7.49215C130.127 7.49215 129.845 7.66274 129.603 7.52682C129.321 7.3909 129.564 7.69649 129.321 7.52682C129.08 7.3909 129.321 7.96924 129.04 7.66274C128.757 7.32248 128.919 7.79866 128.798 7.69649C128.676 7.59432 129.241 8.65067 130.047 9.36494C130.047 9.36494 129.845 9.53552 129.603 9.43336C129.321 9.33119 129.886 10.3866 131.336 11.3746C131.336 11.3746 131.094 11.6464 130.651 11.4083C130.208 11.1702 130.369 11.5789 130.088 11.4421C129.765 11.3061 130.047 11.6811 129.684 11.4767C129.321 11.2724 129.241 11.5442 129.241 11.5442C129.241 11.5442 129.845 12.7018 131.215 13.3148C131.215 13.3148 130.933 13.6214 130.651 13.4854C130.369 13.3495 131.336 15.3245 133.311 16.2093C133.311 16.2093 133.713 16.6864 132.787 16.2093C131.86 15.7322 132.666 17.0604 132.022 16.2093C131.377 15.3582 131.9 16.992 131.296 16.2093C130.651 15.4257 131.417 16.992 130.772 16.3115C130.127 15.6301 131.377 17.1963 130.369 16.3799C129.362 15.5626 130.007 16.618 129.765 16.4474L128.919 16.5158C128.919 16.5158 129.564 19.0016 129.564 19.2397L126.944 19.2735C126.904 19.0354 127.589 16.5158 127.589 16.5158L126.823 16.4474C126.582 16.618 127.226 15.5626 126.219 16.3799C125.211 17.1963 126.461 15.6301 125.816 16.3115C125.171 16.992 125.937 15.392 125.292 16.2093C124.648 16.992 125.211 15.3582 124.567 16.2093C123.922 17.0604 124.728 15.7322 123.801 16.2093C122.875 16.6864 123.277 16.2093 123.277 16.2093C125.252 15.3245 126.219 13.3495 125.937 13.4854C125.654 13.6214 125.373 13.3148 125.373 13.3148C126.702 12.6681 127.347 11.5442 127.347 11.5442C127.347 11.5442 127.266 11.2724 126.904 11.4767C126.542 11.6811 126.823 11.3061 126.501 11.4421C126.178 11.5789 126.38 11.1702 125.937 11.4083C125.494 11.6464 125.252 11.3746 125.252 11.3746C126.743 10.3866 127.266 9.33119 126.985 9.43336C126.702 9.53552 126.542 9.36494 126.542 9.36494C127.347 8.65067 127.911 7.62899 127.79 7.69649C127.669 7.79866 127.79 7.35623 127.549 7.66274C127.266 8.003 127.549 7.3909 127.266 7.52682C127.025 7.66274 127.266 7.3909 126.985 7.52682C126.702 7.66274 126.461 7.49215 126.461 7.49215C127.428 6.77789 128.033 5.62028 127.911 5.68779C127.79 5.7562 127.589 5.7562 127.589 5.7562C128.033 5.04102 128.274 3.78125 128.274 3.78125Z" fill="#CDCDCD" fill-opacity="0.8"/>
<path fill-rule="evenodd" clip-rule="evenodd" d="M133.834 6.05664C133.834 6.05664 134.035 6.90774 134.358 7.41858C134.358 7.41858 134.237 7.41858 134.156 7.38483C134.076 7.35017 134.478 8.13376 135.164 8.6446C135.164 8.6446 134.962 8.74677 134.801 8.67836C134.599 8.57619 134.801 8.78052 134.599 8.67836C134.438 8.57619 134.599 8.98486 134.399 8.74677C134.197 8.50777 134.318 8.81428 134.237 8.78052C134.156 8.71211 134.559 9.42729 135.123 9.93813C135.123 9.93813 135.002 10.074 134.801 10.0065C134.6 9.93813 135.002 10.6533 136.01 11.3338C136.01 11.3338 135.849 11.5044 135.526 11.3685C135.204 11.1979 135.325 11.4707 135.123 11.4022C134.921 11.3001 135.123 11.5728 134.842 11.436C134.599 11.3001 134.519 11.4707 134.519 11.4707C134.519 11.4707 134.921 12.2533 135.888 12.6958C135.888 12.6958 135.688 12.9001 135.486 12.7979C135.285 12.6958 135.969 14.0577 137.34 14.7054C137.34 14.7054 137.622 15.0119 136.977 14.7054C136.333 14.3989 136.896 15.2837 136.453 14.7054C136.01 14.1261 136.373 15.25 135.929 14.7054C135.486 14.1599 136.01 15.25 135.566 14.7729C135.123 14.2967 135.969 15.3859 135.285 14.8413C134.6 14.262 135.043 15.0119 134.882 14.8751L134.278 14.9097C134.278 14.9097 134.721 16.6457 134.721 16.7825L132.908 16.8163C132.867 16.6457 133.351 14.9097 133.351 14.9097L132.827 14.8413C132.666 14.9772 133.109 14.2283 132.424 14.8076C131.739 15.3859 132.585 14.262 132.142 14.7391C131.699 15.2162 132.222 14.0924 131.779 14.6707C131.336 15.2162 131.739 14.0924 131.255 14.6707C130.812 15.25 131.377 14.3642 130.732 14.6707C130.087 14.9772 130.369 14.6707 130.369 14.6707C131.739 14.0577 132.424 12.662 132.222 12.7642C132.021 12.8663 131.82 12.662 131.82 12.662C132.746 12.2196 133.189 11.436 133.189 11.436C133.189 11.436 133.149 11.2663 132.867 11.4022C132.625 11.5382 132.827 11.3001 132.585 11.3685C132.384 11.4707 132.504 11.1979 132.182 11.3338C131.86 11.5044 131.699 11.3001 131.699 11.3001C132.746 10.6186 133.109 9.86971 132.908 9.97188C132.706 10.0403 132.585 9.90438 132.585 9.90438C133.149 9.42729 133.552 8.67836 133.471 8.74677C133.391 8.81428 133.471 8.50777 133.311 8.71211C133.109 8.95111 133.311 8.54244 133.109 8.6446C132.947 8.74677 133.109 8.54244 132.908 8.6446C132.706 8.74677 132.544 8.60994 132.544 8.60994C133.23 8.13376 133.633 7.31641 133.552 7.35017C133.471 7.38483 133.351 7.38483 133.351 7.38483C133.633 6.90774 133.834 6.05664 133.834 6.05664Z" fill="#CDCDCD" fill-opacity="0.8"/>
<path fill-rule="evenodd" clip-rule="evenodd" d="M123.561 9.08984C123.561 9.08984 123.763 9.9747 124.085 10.5202C124.085 10.5202 123.964 10.5202 123.883 10.4855C123.803 10.4518 124.206 11.2691 124.931 11.78C124.931 11.78 124.73 11.8821 124.528 11.8137C124.326 11.7116 124.528 11.9159 124.326 11.8137C124.166 11.7116 124.326 12.1202 124.125 11.9159C123.923 11.6778 124.044 12.0181 123.964 11.9496C123.883 11.8821 124.287 12.6311 124.85 13.1419C124.85 13.1419 124.73 13.2778 124.528 13.2094C124.326 13.1419 124.73 13.8908 125.778 14.5714C125.778 14.5714 125.616 14.7419 125.293 14.606C124.971 14.4354 125.092 14.7082 124.89 14.6398C124.649 14.5376 124.89 14.8104 124.609 14.6735C124.326 14.5376 124.287 14.7082 124.287 14.7082C124.287 14.7082 124.73 15.5246 125.697 15.968C125.697 15.968 125.495 16.2061 125.293 16.1039C125.092 16.0017 125.778 17.4321 127.188 18.0451C127.188 18.0451 127.469 18.3853 126.824 18.0451C126.18 17.7039 126.745 18.6572 126.261 18.0451C125.778 17.4321 126.18 18.6234 125.737 18.0451C125.293 17.4658 125.817 18.6234 125.374 18.1126C124.931 17.6364 125.817 18.7594 125.092 18.181C124.366 17.6018 124.811 18.3516 124.649 18.2148L124.044 18.2832C124.044 18.2832 124.528 20.0538 124.488 20.2235L122.634 20.2581C122.594 20.0875 123.077 18.3169 123.077 18.3169L122.554 18.2494C122.392 18.3853 122.835 17.6364 122.111 18.2148C121.385 18.794 122.272 17.6702 121.829 18.1473C121.385 18.6234 121.909 17.4996 121.466 18.0788C121.022 18.6572 121.425 17.4658 120.942 18.0788C120.458 18.6919 121.063 17.7386 120.377 18.0788C119.733 18.4191 120.015 18.0788 120.015 18.0788C121.425 17.4321 122.111 16.0355 121.909 16.1376C121.708 16.2398 121.506 16.0017 121.506 16.0017C122.473 15.5593 122.916 14.7419 122.916 14.7419C122.916 14.7419 122.876 14.5714 122.594 14.7082C122.312 14.8441 122.554 14.606 122.312 14.6735C122.07 14.7757 122.232 14.5039 121.909 14.6398C121.587 14.8104 121.425 14.606 121.425 14.606C122.473 13.8908 122.876 13.1419 122.675 13.2441C122.473 13.3116 122.352 13.1757 122.352 13.1757C122.956 12.6648 123.359 11.9159 123.239 11.9843C123.158 12.0518 123.239 11.7453 123.078 11.9496C122.876 12.1886 123.078 11.7453 122.876 11.8475C122.715 11.9496 122.876 11.7453 122.675 11.8475C122.473 11.9496 122.272 11.8137 122.272 11.8137C122.956 11.3029 123.399 10.4855 123.32 10.5202C123.239 10.554 123.118 10.554 123.118 10.554C123.359 9.9747 123.561 9.08984 123.561 9.08984Z" fill="#CDCDCD" fill-opacity="0.8"/>
<path fill-rule="evenodd" clip-rule="evenodd" d="M175.095 11.8477C175.095 11.8477 175.377 13.1758 175.901 13.9585C175.901 13.9585 175.699 13.9585 175.578 13.891C175.418 13.8226 176.063 15.0486 177.109 15.7976C177.109 15.7976 176.828 15.9681 176.545 15.8313C176.263 15.6954 176.506 16.0019 176.263 15.8313C175.982 15.6616 176.263 16.3084 175.982 15.9681C175.699 15.627 175.861 16.1041 175.699 16.0019C175.539 15.8997 176.183 17.0236 177.03 17.7725C177.03 17.7725 176.828 17.9769 176.545 17.8409C176.263 17.7388 176.828 18.8617 178.399 19.8834C178.399 19.8834 178.157 20.1561 177.674 19.9181C177.19 19.6791 177.392 20.0877 177.069 19.9518C176.747 19.8159 177.03 20.2236 176.666 19.9856C176.263 19.7812 176.183 20.054 176.183 20.054C176.183 20.054 176.828 21.28 178.278 21.9605C178.278 21.9605 177.956 22.3008 177.674 22.1311C177.392 21.9605 178.399 24.0714 180.494 25.0247C180.494 25.0247 180.897 25.5355 179.931 25.0247C178.964 24.5485 179.809 25.9104 179.124 25.0247C178.44 24.1398 179.003 25.8767 178.319 25.0247C177.633 24.1736 178.44 25.8767 177.754 25.1268C177.069 24.4126 178.399 26.081 177.352 25.1952C176.304 24.3441 176.949 25.468 176.707 25.2637L175.78 25.3312C175.78 25.3312 176.465 27.9538 176.465 28.2256L173.685 28.2594C173.644 28.0213 174.37 25.3312 174.37 25.3312L173.564 25.229C173.322 25.4333 173.967 24.3104 172.919 25.1615C171.831 26.0126 173.161 24.3441 172.517 25.0931C171.831 25.8082 172.637 24.1398 171.952 24.9909C171.267 25.842 171.872 24.106 171.146 24.9909C170.462 25.8767 171.307 24.5147 170.34 24.9909C169.373 25.5017 169.776 24.9909 169.776 24.9909C171.872 24.0376 172.879 21.9268 172.637 22.0964C172.355 22.267 172.033 21.9268 172.033 21.9268C173.484 21.2453 174.128 20.0202 174.128 20.0202C174.128 20.0202 174.048 19.7475 173.644 19.9518C173.241 20.1561 173.564 19.7812 173.241 19.9181C172.919 20.054 173.12 19.6453 172.637 19.8834C172.153 20.1224 171.912 19.8496 171.912 19.8496C173.484 18.7942 174.048 17.6703 173.765 17.8063C173.484 17.9084 173.282 17.7388 173.282 17.7388C174.168 16.9889 174.773 15.8997 174.611 15.9681C174.491 16.0703 174.611 15.5932 174.33 15.9335C174.048 16.2747 174.33 15.6616 174.048 15.7976C173.765 15.9681 174.048 15.6616 173.765 15.7976C173.484 15.9335 173.201 15.7638 173.201 15.7638C174.249 15.0149 174.894 13.7889 174.732 13.8564C174.611 13.9248 174.41 13.9248 174.41 13.9248C174.813 13.1758 175.095 11.8477 175.095 11.8477Z" fill="#CDCDCD" fill-opacity="0.8"/>
<path fill-rule="evenodd" clip-rule="evenodd" d="M180.938 19.002C180.938 19.002 181.14 19.8868 181.462 20.4314C181.462 20.4314 181.341 20.4314 181.26 20.3976C181.179 20.3639 181.583 21.1812 182.308 21.6921C182.308 21.6921 182.107 21.7933 181.905 21.7258C181.703 21.6237 181.905 21.828 181.703 21.7258C181.542 21.6237 181.703 22.0323 181.502 21.828C181.3 21.5899 181.421 21.9302 181.341 21.8618C181.26 21.7933 181.664 22.5432 182.227 23.054C182.227 23.054 182.107 23.1899 181.905 23.1215C181.703 23.054 182.107 23.803 183.153 24.5181C183.153 24.5181 182.993 24.6878 182.67 24.5519C182.348 24.3813 182.469 24.6878 182.267 24.5856C182.026 24.4835 182.267 24.7562 181.986 24.6203C181.703 24.4835 181.664 24.6541 181.664 24.6541C181.664 24.6541 182.107 25.4714 183.074 25.9138C183.074 25.9138 182.872 26.1519 182.67 26.0498C182.469 25.9476 183.153 27.3779 184.565 27.991C184.565 27.991 184.846 28.3312 184.201 27.991C183.557 27.6507 184.12 28.604 183.637 27.991C183.153 27.3779 183.557 28.5693 183.114 27.991C182.67 27.4117 183.194 28.5693 182.751 28.0594C182.308 27.5823 183.194 28.7061 182.469 28.1269C181.743 27.5485 182.186 28.2975 182.026 28.1606L181.421 28.229C181.421 28.229 181.905 29.9997 181.865 30.1702L180.011 30.204C179.971 30.0334 180.454 28.229 180.454 28.229L179.931 28.1606C179.769 28.2975 180.212 27.5485 179.487 28.1269C178.762 28.7061 179.649 27.5823 179.205 28.0594C178.762 28.5355 179.286 27.4117 178.842 27.991C178.399 28.5693 178.802 27.3779 178.319 27.991C177.835 28.604 178.44 27.6507 177.754 27.991C177.11 28.3312 177.392 27.991 177.392 27.991C178.802 27.3442 179.487 25.9476 179.286 26.0498C179.085 26.1519 178.883 25.9138 178.883 25.9138C179.85 25.4714 180.293 24.6541 180.293 24.6541C180.293 24.6541 180.253 24.4835 179.971 24.6203C179.688 24.7562 179.931 24.5181 179.688 24.5856C179.447 24.6878 179.609 24.416 179.286 24.5519C178.964 24.7225 178.802 24.5181 178.802 24.5181C179.85 23.803 180.253 23.054 180.052 23.1215C179.85 23.1899 179.729 23.054 179.729 23.054C180.333 22.5432 180.736 21.7933 180.616 21.8618C180.535 21.9302 180.616 21.6237 180.454 21.828C180.253 22.0661 180.454 21.6237 180.253 21.7258C180.092 21.828 180.253 21.6237 180.052 21.7258C179.85 21.828 179.649 21.6921 179.649 21.6921C180.333 21.1812 180.776 20.3639 180.696 20.3976C180.616 20.4314 180.495 20.4314 180.495 20.4314C180.776 19.8868 180.938 19.002 180.938 19.002Z" fill="#CDCDCD" fill-opacity="0.8"/>
<path d="M44.8363 43.6174C43.9221 43.6174 43.2106 43.3975 42.7018 42.9569C42.1929 42.5145 41.9385 41.8787 41.9385 41.0486V37.75H42.9174V41.0157C42.9174 42.2591 43.5599 42.8803 44.845 42.8803C45.4713 42.8803 45.9511 42.7271 46.2853 42.4206C46.6184 42.1141 46.7855 41.6461 46.7855 41.0157V37.75H47.7342V41.0486C47.7342 41.8833 47.4798 42.5209 46.9709 42.9606C46.4621 43.3985 45.7506 43.6174 44.8363 43.6174Z" fill="#CDCDCD"/>
<path d="M61.744 37.75V43.5517H60.9376L56.8279 39.2278V43.5517H55.8447V37.75H56.6511L60.7608 42.0776V37.75H61.744Z" fill="#CDCDCD"/>
<path d="M69.9092 37.75H70.8924V43.5517H69.9092V37.75Z" fill="#CDCDCD"/>
<path d="M85.4125 43.5517L85.4039 39.3263L82.9243 42.8475H82.4758L79.9962 39.3519V43.5517H79.0562V37.75H79.8626L82.7216 41.8294L85.5419 37.75H86.3439L86.3526 43.5517H85.4125Z" fill="#CDCDCD"/>
<path d="M99.4954 42.8292V43.5517H94.519V37.75H99.3575V38.4725H95.5022V40.2531H98.9392V40.9574H95.5022V42.8292H99.4954Z" fill="#CDCDCD"/>
<path d="M108.541 38.4725H106.19V37.75H111.861V38.4725H109.511V43.5517H108.541V38.4725Z" fill="#CDCDCD"/>
<path d="M123.629 43.5517L122.15 41.7711C121.969 41.7811 121.825 41.7857 121.719 41.7857H120.029V43.5517H119.045V37.75H121.719C122.607 37.75 123.306 37.9306 123.815 38.29C124.326 38.6504 124.582 39.1439 124.582 39.7715C124.582 40.2194 124.451 40.6016 124.19 40.9172C123.928 41.231 123.556 41.46 123.073 41.6032L124.699 43.5517H123.629ZM121.693 41.0814C122.311 41.0814 122.782 40.9683 123.108 40.7421C123.435 40.5158 123.599 40.1929 123.599 39.7715C123.599 39.3537 123.435 39.0326 123.108 38.8082C122.782 38.5847 122.311 38.4725 121.693 38.4725H120.029V41.0814H121.693Z" fill="#CDCDCD"/>
<path d="M136.633 42.1031H132.993L132.239 43.5517H131.229L134.334 37.75H135.3L138.418 43.5517H137.387L136.633 42.1031ZM136.292 41.439L134.813 38.5965L133.334 41.439H136.292Z" fill="#CDCDCD"/>
<path d="M145.548 37.75H146.532V43.5517H145.548V37.75Z" fill="#CDCDCD"/>
<path d="M154.7 37.75H155.683V42.8292H159.391V43.5517H154.7V37.75Z" fill="#CDCDCD"/>
</svg>
